<?xml version="1.0" encoding="UTF-8"?>
<svg width="80px" height="94px" viewBox="0 0 80 94" version="1.1" xmlns="http://www.w3.org/2000/svg" xmlns:xlink="http://www.w3.org/1999/xlink">
    <!-- Generator: Sketch 57.1 (83088) - https://sketch.com -->
    <title>分组 3</title>
    <desc>Created with Sketch.</desc>
    <g id="我的" stroke="none" stroke-width="1" fill="none" fill-rule="evenodd">
        <g id="5.16-我的-待办" transform="translate(-148.000000, -119.000000)">
            <g id="分组-3" transform="translate(148.000000, 119.000000)">
                <path d="M7.36245935,66.0050109 L7.36245935,79.2292364 C7.36245935,80.00524 7.64276367,80.680975 8.3928905,80.9142162 L47.8557899,93.184722 C48.02969,93.2370126 48.152717,93.2631579 48.3310924,93.2631579 C48.7720534,93.2631579 49.1786728,93.105118 49.5132294,92.8075467 L71.4865655,73.1757437 C71.8622226,72.8400774 72.032926,72.3648797 72.032926,71.8656031 L72.0329259,57.345972 L77.5262143,59.2075899 C77.7335426,59.2773107 77.9595032,59.312261 78.1689322,59.312261 C78.6730963,59.312261 79.1682184,59.1128019 79.5350161,58.7378727 C80.0546157,58.2070601 80.1211982,57.4517212 79.8220791,56.702402 L72.0330172,40.3551147 C72.0330172,40.3463996 72.0330172,40.3365166 72.0330172,40.3268131 C72.0330172,40.0902475 71.9809568,39.8712019 71.844595,39.6619496 C71.6904231,39.307775 71.4799894,39.0004103 71.1287185,38.8064319 C71.074466,38.7769623 71.0390284,38.7650127 70.98368,38.7410237 C70.3320113,38.2800217 69.641891,37.9846067 69.4734709,37.9350114 L37.3465251,28.084609 C36.8468363,27.934206 36.3194733,27.9864967 35.8585102,28.2241405 L10.4836189,41.2989514 C8.50029937,42.3213139 7.6859647,43.0575155 7.35688803,43.5758395 C7.18846795,43.7644272 7.06991635,43.9829337 6.99684908,44.2210267 C6.86386664,44.4063799 6.74531504,44.6025146 6.65562495,44.8183258 L0.229358963,60.4228527 C-0.0997177127,61.2218569 -0.0731395041,62.1264308 0.299138208,62.9074657 C0.672511957,63.6873327 1.59215482,64.2833739 2.42868363,64.5439285 L7.36245935,66.0050109 Z M10.5263158,67.3381715 L39.6908186,76.6018603 C39.9932729,76.6953533 40.1957163,76.7453715 40.5111764,76.7453715 C41.8832532,76.7453715 43.0518999,75.8232605 43.4305956,74.5031546 L46.4794459,63.7894737 L47.3684211,91.1578947 L10.5263158,79.4877713 L10.5263158,67.3381715 Z M69.4736842,71.8603327 L49.3132305,90.1052632 L48.4210526,54.9236969 L69.4736842,41.6842105 L69.4736842,71.8603327 Z M71.5789474,54.5600365 L71.5789474,44.8421053 L76.8421053,56.4210526 L71.5789474,54.5600365 Z M36.6293511,30.1052632 L67.3684211,39.4513925 L46.6201434,52.2105263 C45.2523208,51.8905488 40.5476334,50.6972721 34.5353447,49.1571986 L11.5789474,42.9071842 C11.5899789,42.9018027 11.60092,42.8954508 11.6118612,42.8905986 L36.6293511,30.1052632 Z M2.17059646,61.9099593 L8.66437728,46.3482565 C8.69575711,46.2728756 8.74051958,46.9893909 8.79091189,45.8947368 L9.54559704,45.8947368 L9.54559704,46.2846015 C21.0104982,49.4044008 29.9629817,51.5188571 35.65953,52.9472148 L45.7383652,55.6648945 C45.969007,55.7263453 46.1033866,55.8707593 46.2198611,56.0696591 C46.3373509,56.269705 46.3373509,56.5017548 46.271361,56.7220785 L41.1570009,73.6972393 C41.0238212,74.1442347 40.5053155,74.4223946 40.0240041,74.2769227 L2.73257242,63.0421715 C2.49297811,62.9694355 2.29934608,62.8089756 2.19182396,62.5918258 C2.08439419,62.3736179 2.07654923,62.1319582 2.17059646,61.9099593 Z" id="形状" fill="#BBBBBB" fill-rule="nonzero" opacity="0.603636"></path>
                <g id="分组-2" opacity="0.595433" transform="translate(10.000000, 0.000000)">
                    <path d="M6.63627498,0.5 C4.70465463,0.5 2.8841003,1.40302769 1.71529065,2.94089672 C-0.350277234,5.65868132 0.178448884,9.53635466 2.89623348,11.6019225 L15.6008919,21.2577041 C17.5149224,22.7124036 19.8528201,23.5 22.2569132,23.5 L49.0244768,23.5 C55.0996091,23.5 60.0244768,18.5751322 60.0244768,12.5 L60.0244768,11.5 C60.0244768,5.42486775 55.0996091,0.5 49.0244768,0.5 L6.63627498,0.5 Z" id="矩形" stroke="#BBBBBB" fill="#FFFFFF" fill-rule="nonzero" transform="translate(30.262238, 12.000000) scale(1, -1) translate(-30.262238, -12.000000) "></path>
                    <text id="今日无事" font-family="PingFangSC-Regular, PingFang SC" font-size="10" font-weight="normal" letter-spacing="0.12" fill="#999999">
                        <tspan x="13.26" y="16">今日无事</tspan>
                    </text>
                </g>
            </g>
        </g>
    </g>
</svg>