<?xml version="1.0" encoding="UTF-8"?>
<svg width="26px" height="26px" viewBox="0 0 26 26" version="1.1" xmlns="http://www.w3.org/2000/svg" xmlns:xlink="http://www.w3.org/1999/xlink">
    <!-- Generator: Sketch 57.1 (83088) - https://sketch.com -->
    <title>分组 2</title>
    <desc>Created with Sketch.</desc>
    <g id="首页" stroke="none" stroke-width="1" fill="none" fill-rule="evenodd">
        <g id="2-首页长图" transform="translate(-28.000000, -281.000000)" fill="#548191" fill-rule="nonzero">
            <g id="分组-6" transform="translate(28.000000, 281.000000)">
                <g id="图标组">
                    <g id="定期存款">
                        <g id="分组-2">
                            <g id="匯款">
                                <path d="M21.8636364,6.17358469 L21.8636364,25 L5.13636364,25 L5.13636364,6.17358469 L21.8636364,6.17358469 Z M19.7727273,8.26845942 L7.22727273,8.26845942 L7.22727273,22.9051253 L19.7727273,22.9051253 L19.7727273,8.26845942 Z M14.5454545,9.29411426 L14.5452262,10.4378876 L14.7473031,10.479877 C16.3489233,10.844883 17.5800455,11.9032376 17.6758155,13.306941 L17.6758155,13.306941 L17.6818182,13.4838637 L15.5909091,13.4838637 L15.5826187,13.403284 C15.5221657,13.1047855 15.1348909,12.7779504 14.5455174,12.5909985 L14.5455174,12.5909985 L14.5452262,14.6276371 L14.7472896,14.6696234 C16.4155337,15.0498083 17.6818182,16.1822241 17.6818182,17.6736132 C17.6818182,19.2246578 16.3122049,20.387437 14.5452262,20.7195893 L14.5452262,20.7195893 L14.5454545,21.8633626 L12.4545455,21.8633626 L12.4547738,20.7195893 L12.2526969,20.6775999 C10.6510767,20.3125939 9.41995451,19.2542393 9.32418447,17.8505359 L9.32418447,17.8505359 L9.31818182,17.6736132 L11.4090909,17.6736132 L11.4173813,17.7541929 C11.4778343,18.0526914 11.8651091,18.3795265 12.4544826,18.5664784 L12.4544826,18.5664784 L12.4547738,16.5298398 L12.2527104,16.4878535 C10.5844663,16.1076686 9.31818182,14.9752528 9.31818182,13.4838637 C9.31818182,11.9328191 10.6877951,10.7700399 12.4547738,10.4378876 L12.4547738,10.4378876 L12.4545455,9.29411426 L14.5454545,9.29411426 Z M14.5455174,18.5664784 L14.5455174,18.5664784 L14.7011512,18.5121497 C15.2527487,18.3011547 15.5909091,17.9655693 15.5909091,17.6736132 C15.5909091,17.3551155 15.1884703,16.9846955 14.5455174,16.7807479 L14.5455174,16.7807479 Z M12.4544826,12.5909985 C11.8115297,12.7949461 11.4090909,13.1653661 11.4090909,13.4838637 C11.4090909,13.8021878 11.8110913,14.1723778 12.453432,14.3763955 L12.453432,14.3763955 Z M25,2 L25,12.4372764 L21.87,12.437 L21.870783,10.3424016 L22.9090909,10.3424016 L22.9090909,4.09487473 L4.09090909,4.09487473 L4.09090909,10.3424016 L5.13508745,10.3424016 L5.135,12.437 L2,12.4372764 L2,2 L25,2 Z" id="Combined-Shape"></path>
                            </g>
                        </g>
                    </g>
                </g>
            </g>
        </g>
    </g>
</svg>