<?xml version="1.0" encoding="UTF-8"?>
<svg width="22px" height="26px" viewBox="0 0 22 26" version="1.1" xmlns="http://www.w3.org/2000/svg" xmlns:xlink="http://www.w3.org/1999/xlink">
    <!-- Generator: Sketch 57.1 (83088) - https://sketch.com -->
    <title>Combined Shape</title>
    <desc>Created with Sketch.</desc>
    <g id="首页" stroke="none" stroke-width="1" fill="none" fill-rule="evenodd">
        <g id="2-首页长图" transform="translate(-104.000000, -282.000000)" fill="#548191" fill-rule="nonzero">
            <g id="分组-6" transform="translate(28.000000, 281.000000)">
                <g id="WD" transform="translate(59.000000, 0.000000)">
                    <g id="分组-5">
                        <g id="分组-10">
                            <path d="M35.0710678,4.03817855 C36.2579445,5.28157323 37.0821705,6.76136434 37.5439487,8.33377786 L39,8.33403681 L39,18.8102273 L35.07,18.8102269 L35.0501911,18.8318783 L35.03,18.8102269 L34.999,18.8102269 L27.9895616,26.1544961 L20.979,18.8102269 L20.969,18.8102269 L20.9289322,18.8537492 L20.888,18.8102269 L17,18.8102273 L17,8.33403681 L18.4736963,8.33343127 C18.913438,6.86451462 19.6691474,5.47621616 20.7406594,4.28568688 L20.9498089,4.06004942 C24.8550518,-0.0311574464 31.1773548,-0.0409493665 35.0710678,4.03817855 Z M31.866,18.8102269 L24.122,18.8102269 L27.9942009,22.8670072 L31.866,18.8102269 Z M36.9047619,10.4292749 L19.0952381,10.4292749 L19.0952381,16.7149892 L36.9047619,16.7149892 L36.9047619,10.4292749 Z M28.5238095,11.476894 L28.5238095,12.1923716 C28.3715311,12.1773877 28.2354957,12.1695962 28.0312396,12.1670789 L27.8639364,12.1661499 L27.3859514,12.1661499 L27.3859514,14.0541117 C27.3859514,14.2226798 27.3907101,14.3575342 27.4037965,14.4887012 L27.4197911,14.6197511 L26.4849708,14.6197511 C26.5040056,14.4877061 26.513523,14.3683038 26.5170921,14.2172949 L26.5188105,14.0541117 L26.5188105,12.1661499 L26.0196757,12.1661499 C25.797603,12.1661499 25.7106539,12.1687512 25.5140393,12.1826251 L25.3809524,12.1923716 L25.3809524,11.476894 C25.4926232,11.488881 25.6638518,11.4984707 25.8599864,11.501827 L26.0112158,11.5031156 L27.8639364,11.5031156 C28.1600333,11.5031156 28.3292316,11.4956237 28.5238095,11.476894 Z M29.7489321,11.476894 C29.7749196,11.606839 29.803877,11.7101907 29.8690684,11.8739819 L29.9252755,12.0095176 L30.6213679,13.6376082 L31.3128197,12.0095176 C31.4017648,11.7986087 31.4423702,11.6795134 31.4695479,11.55386 L31.4845225,11.476894 L32.7142857,11.476894 C32.6920108,11.6219489 32.6816158,11.7500808 32.6783488,11.9251137 L32.6771608,12.0661797 L32.6779772,14.1668042 C32.6802116,14.3297951 32.6872584,14.4413005 32.7018678,14.5438519 L32.7142857,14.6197511 L31.8000844,14.6197511 C31.8223593,14.4807401 31.8327543,14.3610698 31.8360213,14.1814434 L31.8372093,14.0342429 L31.8372093,13.2107538 C31.8372093,13.1200945 31.8511312,12.8367841 31.8604124,12.7196824 C31.8743342,12.5194764 31.8743342,12.5194764 31.8789748,12.4628143 C31.7938969,12.70835 31.7474907,12.8437094 31.6994732,12.9607062 L31.6701471,13.0294352 L31.2200074,14.0644626 C31.1233279,14.2879631 31.0653202,14.4406359 31.0352421,14.5552717 L31.0204609,14.6197511 L30.2129937,14.6197511 C30.1931054,14.5064269 30.1527604,14.3875522 30.0627352,14.1751106 L30.0134472,14.0606852 L29.5865106,13.0558775 C29.58187,13.0369901 29.4426515,12.6856852 29.4287296,12.6554654 C29.3776829,12.5194764 29.3776829,12.5194764 29.3544798,12.4665918 C29.3753625,12.6450773 29.3910246,12.8639346 29.3975505,13.0466699 L29.4008859,13.2145313 L29.4008859,14.0342429 C29.4008859,14.2427593 29.4068259,14.3908363 29.4234579,14.5229571 L29.4380109,14.6197511 L28.5238095,14.6197511 C28.5460845,14.4837621 28.5564795,14.3550258 28.5597465,14.1774544 L28.5609345,14.0342429 L28.5609345,12.0661797 C28.5609345,11.8961934 28.5531034,11.7410809 28.5393991,11.6056231 L28.5238095,11.476894 L29.7489321,11.476894 Z M24.2831553,11.476894 C24.3088563,11.5864407 24.3345572,11.6846549 24.4079884,11.884861 L25.2047174,14.1588994 C25.2744771,14.3591055 25.3332221,14.5139819 25.3809524,14.6197511 L24.5218069,14.6197511 C24.4924344,14.4384324 24.470405,14.3402181 24.4336894,14.2117841 L24.3345572,13.8906989 L23.288162,13.8906989 L23.1890298,14.2117841 C23.1412995,14.362883 23.1155986,14.4799846 23.0972408,14.6197511 L22.2380952,14.6197511 C22.2931687,14.5064269 22.3262127,14.4157676 22.4143302,14.1588994 L23.2073876,11.884861 C23.2734757,11.6997648 23.3065198,11.5864407 23.3248776,11.476894 L24.2831553,11.476894 Z M23.6754286,12.524513 L23.2857143,13.5721321 L24.0735238,13.5721321 L23.6754286,12.524513 Z M22.5165181,5.70136374 C21.7732392,6.48003686 21.2114113,7.376645 20.831116,8.33333119 L35.1862729,8.33289419 C34.8085893,7.36919954 34.2464326,6.46662406 33.4997194,5.68435307 C30.471276,2.51169802 25.5539292,2.51931396 22.5165181,5.70136374 Z" id="Combined-Shape"></path>
                        </g>
                    </g>
                </g>
            </g>
        </g>
    </g>
</svg>