<?xml version="1.0" encoding="UTF-8"?>
<svg width="21px" height="24px" viewBox="0 0 21 24" version="1.1" xmlns="http://www.w3.org/2000/svg" xmlns:xlink="http://www.w3.org/1999/xlink">
    <!-- Generator: Sketch 57.1 (83088) - https://sketch.com -->
    <title>编组 3</title>
    <desc>Created with Sketch.</desc>
    <g id="理财" stroke="none" stroke-width="1" fill="none" fill-rule="evenodd">
        <g id="7-理财" transform="translate(-181.000000, -213.000000)" fill="#ddd" fill-rule="nonzero">
            <g id="编组-3" transform="translate(179.000000, 211.000000)">
                <g id="分组-2" transform="translate(2.000000, 2.000000)">
                    <polygon id="Combined-Shape" points="7.02124311 11.4960005 10.9045744 14.7 17.85 7.886046 16.3746342 6.3 10.9205933 11.4708451 7.0477318 8.27863242 3.15 12.4506476 4.61494881 14.0480888"></polygon>
                    <path d="M9.97965976,0.158431953 L10.5,1.77635684e-15 C15.05,1.4 18.55,2.1 21,2.1 L21,12.6 C18.2,18.2 14.7,21.7 10.5,23.1 C6.41666667,21.7388889 2.99498457,18.3928241 0.234953704,13.0618056 L0,12.6 L0,2.1 C2.26153846,2.1 5.41775148,1.5035503 9.46863905,0.310650888 L9.97965976,0.158431953 L10.5,1.77635684e-15 Z M10.5,2.19486174 L10.5,2.367 L10.5,2.532 L10.5,2.689 L10.5,2.838 L10.5,2.98 L10.5,3.114 L10.5,3.24 L10.5,3.359 L10.5,3.469 L10.5,3.572 L10.5,3.667 L10.5,3.755 L10.5,3.834 L10.5,3.906 L10.5,3.97 L10.5,4.026 L10.5,4.074 L10.5,12.096 L10.5,12.533 L10.5,12.6 L10.5,12.96 L10.5,13.061 L10.5,13.376 L10.5,13.513 L10.5,13.781 L10.5,13.956 L10.5,14.176 L10.5,14.388 L10.5,14.561 L10.5,14.811 L10.5,14.935 L10.5,15.225 L10.5,15.299 L10.5,15.628 L10.5,15.653 L10.5,15.997 L10.5,16.022 L10.5,16.33 L10.5,16.406 L10.5,16.652 L10.5,16.78 L10.5,16.965 L10.5,17.145 L10.5,17.267 L10.5,17.499 L10.5,17.5 L10.5,17.559 L10.5,17.841 L10.5,17.845 L10.5,18.113 L10.5,18.18 L10.5,18.375 L10.5,18.506 L10.5,18.626 L10.5,18.822 L10.5,18.868 L10.5,19.099 L10.5,19.128 L10.5,19.32 L10.5,19.424 L10.5,19.425 L10.5,19.531 L10.5,19.711 L10.5,19.733 L10.5,19.924 L10.5,19.988 L10.5,20.105 L10.5,20.256 L10.5,20.276 L10.5,20.438 L10.5,20.513 L10.5,20.589 L10.5,20.731 L10.5,20.761 L10.5,20.8626685 C13.7291272,19.553221 16.5346719,16.6660947 18.9,12.0966552 L18.9,4.07469198 C16.622363,3.82336331 13.8308037,3.19466373 10.5,2.19486174 Z M10.5,2.19486174 C7.16919627,3.19466373 4.37763701,3.82336331 2.1,4.07469198 L2.1,4.07469198 L2.1,12.0966552 C4.46532811,16.6660947 7.2708728,19.553221 10.5,20.8626685 Z" id="Combined-Shape"></path>
                </g>
            </g>
        </g>
    </g>
</svg>