<?xml version="1.0" encoding="UTF-8"?>
<svg width="26px" height="26px" viewBox="0 0 26 26" version="1.1" xmlns="http://www.w3.org/2000/svg" xmlns:xlink="http://www.w3.org/1999/xlink">
    <!-- Generator: Sketch 57.1 (83088) - https://sketch.com -->
    <title>分组 2 copy 15</title>
    <desc>Created with Sketch.</desc>
    <g id="首页" stroke="none" stroke-width="1" fill="none" fill-rule="evenodd">
        <g id="2-首页长图" transform="translate(-174.000000, -281.000000)" fill="#548191" fill-rule="nonzero">
            <g id="分组-6" transform="translate(28.000000, 281.000000)">
                <g id="图标组">
                    <g id="分组" transform="translate(136.000000, 0.000000)">
                        <g id="交易查詢" transform="translate(10.000000, 0.000000)">
                            <path d="M12.952381,20.7142857 C17.7914473,20.7142857 21.7142857,16.7914473 21.7142857,11.952381 C21.7142857,7.11331457 17.7914473,3.19047619 12.952381,3.19047619 C8.11331457,3.19047619 4.19047619,7.11331457 4.19047619,11.952381 C4.19047619,16.7914473 8.11331457,20.7142857 12.952381,20.7142857 Z M12.952381,22.9047619 C6.90354798,22.9047619 2,18.0012139 2,11.952381 C2,5.90354798 6.90354798,1 12.952381,1 C19.0012139,1 23.9047619,5.90354798 23.9047619,11.952381 C23.9047619,18.0012139 19.0012139,22.9047619 12.952381,22.9047619 Z M20.3532983,18.8996358 L25,23.5463375 L23.4510994,25.0952381 L18.8043977,20.4485364 L20.3532983,18.8996358 Z M14.047619,4.83333333 L14.047619,6.43801513 C15.898624,6.78538536 17.3333333,8.0011941 17.3333333,9.62295214 L15.1428571,9.62295214 C15.1428571,9.28990876 14.7212271,8.90256988 14.047619,8.68931935 L14.047619,10.8189675 C15.898624,11.1663377 17.3333333,12.3821465 17.3333333,14.0039045 C17.3333333,15.6256626 15.898624,16.8414713 14.047619,17.1888415 L14.047619,19.01552 L11.8571429,19.01552 L11.8571429,17.1888415 C10.0061379,16.8414713 8.57142857,15.6256626 8.57142857,14.0039045 L10.7619048,14.0039045 C10.7619048,14.3369479 11.1835348,14.7242868 11.8571429,14.9375373 L11.8571429,12.8078892 C10.0061379,12.4605189 8.57142857,11.2447102 8.57142857,9.62295214 C8.57142857,8.0011941 10.0061379,6.78538536 11.8571429,6.43801513 L11.8571429,4.83333333 L14.047619,4.83333333 Z M14.047619,12.9086664 L14.047619,14.775932 C14.7212271,14.5626815 15.1428571,14.1753426 15.1428571,13.8422992 C15.1428571,13.5092558 14.7212271,13.121917 14.047619,12.9086664 Z M11.8571429,8.52771405 C11.1835348,8.74096458 10.7619048,9.12830345 10.7619048,9.46134684 C10.7619048,9.79439023 11.1835348,10.1817291 11.8571429,10.3949796 L11.8571429,8.52771405 Z" id="Combined-Shape"></path>
                        </g>
                    </g>
                </g>
            </g>
        </g>
    </g>
</svg>