<?xml version="1.0" encoding="UTF-8"?>
<svg width="40px" height="40px" viewBox="0 0 40 40" version="1.1" xmlns="http://www.w3.org/2000/svg" xmlns:xlink="http://www.w3.org/1999/xlink">
    <!-- Generator: Sketch 57.1 (83088) - https://sketch.com -->
    <title>编组</title>
    <desc>Created with Sketch.</desc>
    <g id="消息中心" stroke="none" stroke-width="1" fill="none" fill-rule="evenodd">
        <g id="1-消息中心" transform="translate(-24.000000, -224.000000)">
            <g id="编组-2备份-2" transform="translate(0.000000, 221.000000)">
                <g id="编组" transform="translate(24.000000, 3.000000)">
                    <circle id="椭圆形" fill="#A9B6D6" cx="20" cy="20" r="20"></circle>
                    <g id="tongzhi" transform="translate(10.000000, 9.000000)" fill="#FFFFFF" fill-rule="nonzero">
                        <path d="M19.2091958,16.3567594 L17.7868688,16.3567594 L17.7868688,9.2451249 C17.7868688,5.1822481 14.6477934,1.81880053 10.6752343,1.45646275 L10.6752343,0.711163457 C10.6752343,0.320023563 10.3552107,0 9.96407086,0 C9.57293096,0 9.2529074,0.320023563 9.2529074,0.711163457 L9.2529074,1.45646275 C5.28034835,1.81880053 2.14127287,5.18224808 2.14127287,9.2451249 L2.14127287,16.3567594 L0.71894596,16.3567594 C0.464842702,16.3567159 0.230022974,16.4922533 0.102958772,16.712306 C-0.0241054305,16.9323586 -0.0241054305,17.2034872 0.102958772,17.4235398 C0.230022974,17.6435924 0.464842702,17.7790863 0.71894596,17.7790863 L19.2091958,17.7790863 C19.463299,17.7790863 19.6981187,17.6435924 19.8251829,17.4235398 C19.9522471,17.2034872 19.9522471,16.9323586 19.8251829,16.712306 C19.6981187,16.4922533 19.463299,16.3567159 19.2091958,16.3567594 Z M9.96407086,21.3903744 C10.5328601,21.3904687 11.0783803,21.1645598 11.480575,20.7623651 C11.8827697,20.3601704 12.1086786,19.8146502 12.1085843,19.2458609 L7.81955744,19.2458609 C7.81946313,19.8146502 8.045372,20.3601704 8.44756672,20.7623651 C8.84976145,21.1645598 9.39528163,21.3904687 9.96407086,21.3903744 L9.96407086,21.3903744 Z" id="形状"></path>
                    </g>
                </g>
            </g>
        </g>
    </g>
</svg>