<?xml version="1.0" encoding="UTF-8"?>
<svg width="16px" height="16px" viewBox="0 0 16 16" version="1.1" xmlns="http://www.w3.org/2000/svg" xmlns:xlink="http://www.w3.org/1999/xlink">
    <!-- Generator: Sketch 57.1 (83088) - https://sketch.com -->
    <title>shanchu</title>
    <desc>Created with Sketch.</desc>
    <g id="搜索" stroke="none" stroke-width="1" fill="none" fill-rule="evenodd">
        <g id="9-搜索" transform="translate(-335.000000, -104.000000)" fill="#999999" fill-rule="nonzero">
            <g id="shanchu" transform="translate(335.000000, 104.000000)">
                <path d="M0,3.45357143 C0,3.13798214 0.255839286,2.88214286 0.571428571,2.88214286 L3.39285714,2.88214286 L3.39285714,1.14285714 C3.39285714,0.5125 3.90535714,0 4.53571429,0 L11.3928571,0 C12.0232143,0 12.5357143,0.5125 12.5357143,1.14285714 L12.5357143,2.88214286 L15.4285714,2.88214286 C15.7441607,2.88214286 16,3.13798214 16,3.45357143 C16,3.76916071 15.7441607,4.025 15.4285714,4.025 L0.571428571,4.025 C0.255839286,4.025 0,3.76916071 0,3.45357143 Z M4.53571429,1.28571429 L4.53571429,2.73214286 C4.53571429,2.81104068 4.59967361,2.875 4.67857143,2.875 L11.25,2.875 C11.3288978,2.875 11.3928571,2.81104068 11.3928571,2.73214286 L11.3928571,1.28571429 C11.3928571,1.20681646 11.3288978,1.14285714 11.25,1.14285714 L4.67857143,1.14285714 C4.59967361,1.14285714 4.53571429,1.20681646 4.53571429,1.28571429 Z M3.625,5.69642857 L3.625,14.7254464 C3.625,14.8043442 3.68895932,14.8683036 3.76785714,14.8683036 L12.2321429,14.8683036 C12.3110407,14.8683036 12.375,14.8043442 12.375,14.7254464 L12.375,5.69642857 C12.375,5.38083929 12.6308393,5.125 12.9464286,5.125 C13.2620179,5.125 13.5178571,5.38083929 13.5178571,5.69642857 L13.5178571,15.3889286 C13.5178571,15.7045357 13.2620179,15.9603571 12.9464286,15.9603571 L3.05357143,15.9603571 C2.73798214,15.9603571 2.48214286,15.7045357 2.48214286,15.3889286 L2.48214286,5.69642857 C2.48214286,5.38083929 2.73798214,5.125 3.05357143,5.125 C3.36916071,5.125 3.625,5.38083929 3.625,5.69642857 Z M6.35714286,5.125 C6.67273214,5.125 6.92857143,5.38083929 6.92857143,5.69642857 L6.92857143,12.8928571 C6.92857143,13.2084464 6.67273214,13.4642857 6.35714286,13.4642857 C6.04155357,13.4642857 5.78571429,13.2084464 5.78571429,12.8928571 L5.78571429,5.69642857 C5.78571429,5.38083929 6.04155357,5.125 6.35714286,5.125 Z M9.64285714,5.125 C9.95844643,5.125 10.2142857,5.38083929 10.2142857,5.69642857 L10.2142857,12.8928571 C10.2142857,13.2084464 9.95844643,13.4642857 9.64285714,13.4642857 C9.32726786,13.4642857 9.07142857,13.2084464 9.07142857,12.8928571 L9.07142857,5.69642857 C9.07142857,5.38083929 9.32726786,5.125 9.64285714,5.125 Z" id="形状"></path>
            </g>
        </g>
    </g>
</svg>