<?xml version="1.0" encoding="UTF-8"?>
<svg width="40px" height="40px" viewBox="0 0 40 40" version="1.1" xmlns="http://www.w3.org/2000/svg" xmlns:xlink="http://www.w3.org/1999/xlink">
    <!-- Generator: Sketch 57.1 (83088) - https://sketch.com -->
    <title>编组</title>
    <desc>Created with Sketch.</desc>
    <g id="消息中心" stroke="none" stroke-width="1" fill="none" fill-rule="evenodd">
        <g id="1-消息中心" transform="translate(-24.000000, -158.000000)">
            <g id="编组-2备份" transform="translate(0.000000, 155.000000)">
                <g id="编组" transform="translate(24.000000, 3.000000)">
                    <circle id="椭圆形" fill="#AFC9BB" cx="20" cy="20" r="20"></circle>
                    <g id="daiban" transform="translate(12.000000, 10.000000)" fill="#FFFFFF" fill-rule="nonzero">
                        <path d="M13.6448317,10.9615385 C10.6936483,10.9615385 8.30459504,13.3505917 8.30459504,16.1612426 C8.30459504,18.9718935 10.6936483,21.5014793 13.6448317,21.5014793 C16.5960152,21.5014793 18.9850684,19.112426 18.9850684,16.1612426 C18.7040033,13.3505917 16.4554826,10.9615385 13.6448317,10.9615385 L13.6448317,10.9615385 Z M15.6122874,17.0044379 L12.942169,17.0044379 C12.6611039,17.0044379 12.5205714,16.7233728 12.5205714,16.5828402 L12.5205714,13.9127219 C12.5205714,13.6316568 12.8016365,13.4911243 12.942169,13.4911243 C13.2232341,13.4911243 13.3637666,13.7721893 13.3637666,13.9127219 L13.3637666,16.3017751 L15.7528199,16.3017751 C16.033885,16.3017751 16.1744175,16.3017751 16.1744175,16.7233728 C16.3149501,17.1449704 15.7528199,17.0044379 15.6122874,17.0044379 L15.6122874,17.0044379 Z" id="形状"></path>
                        <path d="M8.30459504,16.1612426 C8.30459504,13.3505917 10.6936483,10.8210059 13.6448317,10.8210059 C14.488027,10.8210059 15.1906897,11.102071 15.8933524,11.2426036 L15.8933524,1.2647929 C15.8933524,0.562130178 15.1906897,0 14.6285595,0 L1.27796783,0 C0.575305104,0 0.013174926,0.702662722 0.013174926,1.2647929 L0.013174926,17.285503 C0.013174926,17.9881657 0.715837648,18.5502959 1.27796783,18.5502959 L9.00725777,18.5502959 C8.58566013,17.7071006 8.30459504,17.0044379 8.30459504,16.1612426 L8.30459504,16.1612426 Z M2.82382581,3.65384615 L11.396311,3.65384615 C11.8179087,3.65384615 12.0989737,3.93491124 12.0989737,4.35650888 C12.0989737,4.77810651 11.8179087,4.91863905 11.396311,4.91863905 L2.82382581,4.91863905 C2.40222818,4.91863905 2.12116309,4.77810651 2.12116309,4.35650888 C2.12116309,3.93491124 2.40222818,3.65384615 2.82382581,3.65384615 Z M4.65074889,13.9127219 L2.82382581,13.9127219 C2.40222818,13.9127219 2.12116309,13.6316568 2.12116309,13.2100592 C2.12116309,12.7884615 2.40222818,12.5073964 2.82382581,12.5073964 L4.65074889,12.5073964 C5.07234652,12.647929 5.21287907,12.9289941 5.21287907,13.3505917 C5.21287907,13.7721893 5.07234652,13.9127219 4.65074889,13.9127219 Z M6.61820451,9.55621302 L2.82382581,9.55621302 C2.40222818,9.55621302 2.12116309,9.27514793 2.12116309,8.8535503 C2.12116309,8.43195266 2.40222818,8.15088757 2.82382581,8.15088757 L6.61820451,8.15088757 C7.03980214,8.15088757 7.32086723,8.43195266 7.32086723,8.8535503 C7.18033469,9.41568047 7.03980214,9.55621302 6.61820451,9.55621302 Z" id="形状"></path>
                    </g>
                </g>
            </g>
        </g>
    </g>
</svg>