<?xml version="1.0" encoding="UTF-8"?>
<svg width="28px" height="28px" viewBox="0 0 28 28" version="1.1" xmlns="http://www.w3.org/2000/svg" xmlns:xlink="http://www.w3.org/1999/xlink">
    <!-- Generator: Sketch 57.1 (83088) - https://sketch.com -->
    <title>Combined Shape Copy</title>
    <desc>Created with Sketch.</desc>
    <g id="转账" stroke="none" stroke-width="1" fill="none" fill-rule="evenodd">
        <g id="1-转账" transform="translate(-90.000000, -90.000000)" fill="#7AA2AB" fill-rule="nonzero">
            <g id="分组-2" transform="translate(61.000000, 90.000000)">
                <path d="M54.6666667,21 L54.666,23.333 L57,23.3333333 L57,25.6666667 L54.666,25.666 L54.6666667,28 L52.3333333,28 L52.333,25.666 L50,25.6666667 L50,23.3333333 L52.333,23.333 L52.3333333,21 L54.6666667,21 Z M54.6666667,0 L54.666,19.833 L52.333,19.833 L52.3333333,2.33333333 L31.3333333,2.33333333 L31.3333333,23.3333333 L48.833,23.333 L48.833,25.666 L29,25.6666667 L29,0 L54.6666667,0 Z M48.8333333,14 L45.3613162,18.6666667 L42.6992261,18.6666667 L44.3836918,16.3209886 L34.8333333,16.3209886 L34.8333333,14 L48.8333333,14 Z M40.9674406,7 L39.2829748,9.34567803 L48.8333333,9.34567803 L48.8333333,11.6666667 L34.8333333,11.6666667 L38.3053505,7 L40.9674406,7 Z" id="Combined-Shape-Copy"></path>
            </g>
        </g>
    </g>
</svg>