<?xml version="1.0" encoding="UTF-8"?>
<svg width="10px" height="8px" viewBox="0 0 10 8" version="1.1" xmlns="http://www.w3.org/2000/svg" xmlns:xlink="http://www.w3.org/1999/xlink">
    <!-- Generator: Sketch 57.1 (83088) - https://sketch.com -->
    <title>Rectangle 15</title>
    <desc>Created with Sketch.</desc>
    <g id="转账" stroke="none" stroke-width="1" fill="none" fill-rule="evenodd">
        <g id="1.2.1" transform="translate(-23.000000, -383.000000)" fill="#FFFFFF">
            <g id="编组" transform="translate(20.000000, 379.000000)">
                <path d="M9.34274129,3.39177999 C9.39645579,2.84403502 9.89750732,2.4 10.4,2.4 L9.44,2.4 C9.97019336,2.4 10.4,2.84849157 10.4,3.40947189 L10.4,10.1905281 C10.4,10.748044 9.95703125,11.2 9.4054369,11.2 L6.5945631,11.2 C6.04528107,11.2 5.6,10.7525879 5.6,10.2015137 L5.6,11.0984863 C5.6,10.5470376 6.03954819,9.99184781 6.5656343,9.8624027 L8.26724351,9.44371652 C8.54003571,9.37659516 8.78376313,9.09186914 8.80999673,8.82435624 L9.34274129,3.39177999 Z" id="Rectangle-15" transform="translate(8.000000, 6.800000) rotate(45.000000) translate(-8.000000, -6.800000) "></path>
            </g>
        </g>
    </g>
</svg>