<?xml version="1.0" encoding="UTF-8"?>
<svg width="16px" height="16px" viewBox="0 0 16 16" version="1.1" xmlns="http://www.w3.org/2000/svg" xmlns:xlink="http://www.w3.org/1999/xlink">
    <!-- Generator: Sketch 57.1 (83088) - https://sketch.com -->
    <title>saoyisao</title>
    <desc>Created with Sketch.</desc>
    <g id="转账" stroke="none" stroke-width="1" fill="none" fill-rule="evenodd">
        <g id="1.1.1-转账" transform="translate(-339.000000, -181.000000)" fill="#666666" fill-rule="nonzero">
            <g id="saoyisao" transform="translate(339.000000, 181.000000)">
                <path d="M0.527083333,4.77083333 C0.81875,4.77083333 1.05416667,4.53541667 1.05416667,4.24375 L1.05416667,1.05416667 L4.24375,1.05416667 C4.53541667,1.05416667 4.77083333,0.81875 4.77083333,0.527083333 C4.77083333,0.235416667 4.53541667,0 4.24375,0 L0.827083333,0 C0.370833333,0 -1.42108547e-14,0.370833333 -1.42108547e-14,0.827083333 L-1.42108547e-14,4.24375 C-1.42108547e-14,4.53541667 0.235416667,4.77083333 0.527083333,4.77083333 Z M15.1729167,0 L11.75625,0 C11.4645833,0 11.2291667,0.235416667 11.2291667,0.527083333 C11.2291667,0.81875 11.4645833,1.05416667 11.75625,1.05416667 L14.9458333,1.05416667 L14.9458333,4.24375 C14.9458333,4.53541667 15.18125,4.77083333 15.4729167,4.77083333 C15.7645833,4.77083333 16,4.53541667 16,4.24375 L16,0.827083333 C16,0.370833333 15.6291667,0 15.1729167,0 L15.1729167,0 Z M15.4729167,11.2291667 C15.18125,11.2291667 14.9458333,11.4645833 14.9458333,11.75625 L14.9458333,14.9458333 L11.75625,14.9458333 C11.4645833,14.9458333 11.2291667,15.18125 11.2291667,15.4729167 C11.2291667,15.7645833 11.4645833,16 11.75625,16 L15.1729167,16 C15.6291667,16 16,15.6291667 16,15.1729167 L16,11.75625 C16,11.4645833 15.7645833,11.2291667 15.4729167,11.2291667 L15.4729167,11.2291667 Z M4.24375,14.9458333 L1.05416667,14.9458333 L1.05416667,11.75625 C1.05416667,11.4645833 0.81875,11.2291667 0.527083333,11.2291667 C0.235416667,11.2291667 3.15544362e-30,11.4645833 3.15544362e-30,11.75625 L3.15544362e-30,15.1729167 C3.15544362e-30,15.6291667 0.370833333,16 0.827083333,16 L4.24375,16 C4.53541667,16 4.77083333,15.7645833 4.77083333,15.4729167 C4.77083333,15.18125 4.53541667,14.9458333 4.24375,14.9458333 L4.24375,14.9458333 Z M0.51875,8 C0.51875,8.29166667 0.754166667,8.52708333 1.04583333,8.52708333 L15,8.52708333 C15.2916667,8.52708333 15.5270833,8.29166667 15.5270833,8 C15.5270833,7.70833333 15.2916667,7.47291667 15,7.47291667 L1.04583333,7.47291667 C0.754166667,7.47291667 0.51875,7.70833333 0.51875,8 Z" id="形状"></path>
            </g>
        </g>
    </g>
</svg>