<?xml version="1.0" encoding="UTF-8"?>
<svg width="14px" height="6px" viewBox="0 0 14 6" version="1.1" xmlns="http://www.w3.org/2000/svg" xmlns:xlink="http://www.w3.org/1999/xlink">
    <!-- Generator: Sketch 57.1 (83088) - https://sketch.com -->
    <title>shuangxiangzhuanzhen</title>
    <desc>Created with Sketch.</desc>
    <g id="转账" stroke="none" stroke-width="1" fill="none" fill-rule="evenodd">
        <g id="1.5.1-有预约转账" transform="translate(-153.000000, -150.000000)" fill="#666666">
            <g id="分组-7" transform="translate(16.000000, 95.000000)">
                <g id="shuangxiangzhuanzhen" transform="translate(144.000000, 58.000000) rotate(90.000000) translate(-144.000000, -58.000000) translate(141.000000, 51.000000)">
                    <path d="M5.09668977,13.5280569 C4.63540935,13.5280569 4.25799814,13.1506456 4.25799814,12.6893652 L4.25799814,1.09445327 C4.25799814,0.633172852 4.63540939,0.255761638 5.09668977,0.255761638 C5.55797015,0.255761638 5.93538145,0.633172892 5.93538145,1.09445327 L5.93538145,12.6893652 C5.93538145,13.1506456 5.55797019,13.5280569 5.09668977,13.5280569 Z" id="路径"></path>
                    <path d="M0.987100733,6.04273395 C0.777427815,6.04273395 0.567754896,5.95886478 0.400016602,5.79112648 C0.064539932,5.45564982 0.064539932,4.93146756 0.400016602,4.59599089 L4.48863835,0.507369141 C4.82411502,0.171892471 5.34829728,0.171892471 5.68377395,0.507369141 C6.01925062,0.84284581 6.01925062,1.36702807 5.68377395,1.70250474 L1.5951522,5.79112648 C1.42741386,5.95886482 1.21774094,6.04273395 0.987100733,6.04273395 L0.987100733,6.04273395 Z" id="路径"></path>
                </g>
            </g>
        </g>
    </g>
</svg>