<?xml version="1.0" encoding="UTF-8"?>
<svg width="16px" height="16px" viewBox="0 0 16 16" version="1.1" xmlns="http://www.w3.org/2000/svg" xmlns:xlink="http://www.w3.org/1999/xlink">
    <!-- Generator: Sketch 57.1 (83088) - https://sketch.com -->
    <title>tongxunlu-3</title>
    <desc>Created with Sketch.</desc>
    <g id="转账" stroke="none" stroke-width="1" fill="none" fill-rule="evenodd">
        <g id="1.6.1-预约交房租" transform="translate(-339.000000, -447.000000)" fill="#666666" fill-rule="nonzero">
            <g id="tongxunlu-3" transform="translate(339.000000, 447.000000)">
                <path d="M6.30804598,8.34247492 C6.24,8.34247492 6.17011494,8.33177258 6.10206897,8.30680045 C5.22114943,8 4.47632184,7.43812709 3.95034483,6.68361204 C3.29011494,5.73823857 3.0491954,4.60200669 3.27172414,3.48182832 C3.49425287,2.36164994 4.15264368,1.39130435 5.12735632,0.750947603 C6.10022989,0.110590858 7.27356322,-0.124860647 8.42850575,0.0927536232 C9.58344828,0.308584169 10.583908,0.947157191 11.2441379,1.89253066 C11.9043678,2.83790412 12.1452874,3.97413601 11.9227586,5.09431438 C11.7002299,6.21449275 11.0418391,7.18483835 10.0671264,7.82519509 C9.77103448,8.01962096 9.45103448,8.18015608 9.11632184,8.29966555 C8.80183908,8.41382386 8.45241379,8.25507246 8.33655172,7.95005574 C8.22068966,7.64503902 8.38252874,7.30613155 8.69701149,7.19375697 C8.93793103,7.10813824 9.16965517,6.99219621 9.38482759,6.84949833 C10.0910345,6.38573021 10.5673563,5.68294314 10.7291954,4.87313266 C10.8891954,4.06153846 10.7144828,3.23745819 10.2381609,2.55429208 C9.76,1.86934225 9.0354023,1.40735786 8.20045977,1.25217391 C7.36551724,1.09698997 6.51402299,1.26465998 5.80965517,1.72842809 C4.35310345,2.6845039 3.97057471,4.61270903 4.95816092,6.02541806 C5.33885057,6.57123746 5.87770115,6.97792642 6.51586207,7.20089186 C6.83218391,7.31148272 6.99586207,7.64860647 6.88183908,7.95540691 C6.79172414,8.19264214 6.55816092,8.34247492 6.30804598,8.34247492 Z M0.610574713,15.9928651 C0.275862069,15.9928651 0.00367816092,15.728874 0.00367816092,15.4042363 C0.00367816092,12.4414716 1.32045977,8.909699 7.59724138,8.909699 C8.8,8.909699 9.87218391,9.03812709 10.7862069,9.29141583 C11.108046,9.38060201 11.2956322,9.70702341 11.2036782,10.019175 C11.1117241,10.3313266 10.7751724,10.5132664 10.4533333,10.4240803 C9.64781609,10.2011148 8.68597701,10.0887402 7.59724138,10.0887402 C3.24597701,10.0887402 1.21931034,11.7779264 1.21931034,15.4042363 C1.21931034,15.728874 0.947126437,15.9928651 0.610574713,15.9928651 Z M11.1963218,12.412932 L15.9871264,12.412932 L15.9871264,13.5919732 L11.1963218,13.5919732 L11.1963218,12.412932 Z M12.7301149,14.8138239 L15.222069,14.8138239 L15.222069,15.9928651 L12.7301149,15.9928651 L12.7301149,14.8138239 Z M11.9632184,10.2296544 L15.222069,10.2296544 L15.222069,11.4086957 L11.9632184,11.4086957 L11.9632184,10.2296544 Z" id="形状"></path>
            </g>
        </g>
    </g>
</svg>