<?xml version="1.0" encoding="UTF-8"?>
<svg width="16px" height="16px" viewBox="0 0 16 16" version="1.1" xmlns="http://www.w3.org/2000/svg" xmlns:xlink="http://www.w3.org/1999/xlink">
    <!-- Generator: Sketch 57.1 (83088) - https://sketch.com -->
    <title>renwu-ren</title>
    <desc>Created with Sketch.</desc>
    <g id="转账" stroke="none" stroke-width="1" fill="none" fill-rule="evenodd">
        <g id="1.1.1-转账" transform="translate(-339.000000, -135.000000)" fill="#666666" fill-rule="nonzero">
            <g id="renwu-ren" transform="translate(339.000000, 135.000000)">
                <path d="M10.5142857,8.4 C11.7714286,7.6 12.5714286,6.17142857 12.5714286,4.57142857 C12.5714286,2.05714286 10.5142857,0 8,0 C5.48571429,0 3.42857143,2.05714286 3.42857143,4.57142857 C3.42857143,6.17142857 4.22857143,7.6 5.48571429,8.4 C2.28571429,9.42857143 0,12.4571429 0,16 L1.14285714,16 C1.14285714,12.2285714 4.22857143,9.14285714 8,9.14285714 C11.7714286,9.14285714 14.8571429,12.2285714 14.8571429,16 L16,16 C16,12.4571429 13.7142857,9.42857143 10.5142857,8.4 Z M8,8 C6.11428571,8 4.57142857,6.45714286 4.57142857,4.57142857 C4.57142857,2.68571429 6.11428571,1.14285714 8,1.14285714 C9.88571429,1.14285714 11.4285714,2.68571429 11.4285714,4.57142857 C11.4285714,6.45714286 9.88571429,8 8,8 Z" id="形状"></path>
            </g>
        </g>
    </g>
</svg>