<?xml version="1.0" encoding="UTF-8"?>
<svg width="48px" height="48px" viewBox="0 0 48 48" version="1.1" xmlns="http://www.w3.org/2000/svg" xmlns:xlink="http://www.w3.org/1999/xlink">
    <!-- Generator: Sketch 57.1 (83088) - https://sketch.com -->
    <title>分组 5</title>
    <desc>Created with Sketch.</desc>
    <defs>
        <circle id="path-1" cx="22" cy="22" r="22"></circle>
        <filter x="-5.7%" y="-3.4%" width="111.4%" height="111.4%" filterUnits="objectBoundingBox" id="filter-2">
            <feMorphology radius="0.5" operator="dilate" in="SourceAlpha" result="shadowSpreadOuter1"></feMorphology>
            <feOffset dx="0" dy="1" in="shadowSpreadOuter1" result="shadowOffsetOuter1"></feOffset>
            <feMorphology radius="1" operator="erode" in="SourceAlpha" result="shadowInner"></feMorphology>
            <feOffset dx="0" dy="1" in="shadowInner" result="shadowInner"></feOffset>
            <feComposite in="shadowOffsetOuter1" in2="shadowInner" operator="out" result="shadowOffsetOuter1"></feComposite>
            <feGaussianBlur stdDeviation="0.5" in="shadowOffsetOuter1" result="shadowBlurOuter1"></feGaussianBlur>
            <feColorMatrix values="0 0 0 0 0.909803922   0 0 0 0 0.925490196   0 0 0 0 0.956862745  0 0 0 1 0" type="matrix" in="shadowBlurOuter1"></feColorMatrix>
        </filter>
    </defs>
    <g id="转账" stroke="none" stroke-width="1" fill="none" fill-rule="evenodd">
        <g id="1.5-无预约转账" transform="translate(-297.000000, -570.000000)" fill-rule="nonzero">
            <g id="分组-6" transform="translate(0.000000, 516.000000)">
                <g id="分组-5" transform="translate(299.000000, 55.000000)">
                    <g id="椭圆形-copy-6">
                        <use fill="white" fill-opacity="1" filter="url(#filter-2)" xlink:href="#path-1"></use>
                        <use stroke="#E4E6F3" stroke-width="1" xlink:href="#path-1"></use>
                    </g>
                    <g id="xingxing" transform="translate(13.000000, 14.000000)" fill="#666666">
                        <path d="M13.5547638,16.9721184 C13.299461,16.9721184 13.0339197,16.9111812 12.80925,16.7892862 L9.01019725,14.8085399 L5.22136239,16.7994493 C4.98647477,16.9213442 4.73117202,16.9822814 4.46563073,16.9822814 C4.14904128,16.9822814 3.83245183,16.8908551 3.57714908,16.718186 C3.08695872,16.3829903 2.83163532,15.8141473 2.93375229,15.2453249 L3.66904817,10.9486365 L0.472582569,7.84036715 C0.0538761468,7.43405072 -0.0891123853,6.85506522 0.104924312,6.31671135 C0.298961009,5.77835749 0.768736239,5.40253019 1.35084633,5.32126691 L5.70137615,4.69148671 L7.59069495,0.872194444 C7.84599771,0.354166667 8.40767202,0.0189710145 9,0.0189710145 C9.60254587,0.0189710145 10.1540023,0.354166667 10.4093257,0.872214976 L12.2986239,4.69148671 L16.649133,5.32126691 C17.2312431,5.40253019 17.7112362,5.78852053 17.895055,6.31671135 C18.0890917,6.85506522 17.9461239,7.44421377 17.5273968,7.85050966 L14.3309106,10.9486159 L15.0662064,15.2453043 C15.1683234,15.8141268 14.9130206,16.3829698 14.4228096,16.7181655 C14.1777248,16.880692 13.8713532,16.9721184 13.5547638,16.9721184 Z M9.01021789,13.3762899 C9.1940367,13.3762899 9.36765826,13.4169215 9.53106193,13.4981848 L13.4730826,15.5601944 C13.4934977,15.5703575 13.5241514,15.5805205 13.5547844,15.5805205 C13.5956353,15.5805205 13.6262683,15.5703575 13.6569014,15.5500519 C13.6875344,15.5297464 13.7079702,15.4891147 13.7079702,15.4586256 L12.9420413,10.9994106 C12.8807752,10.6540519 13.003328,10.2985302 13.2484128,10.0547403 L16.5572546,6.84492271 C16.5776697,6.82461715 16.5981055,6.79412802 16.5878876,6.75349638 C16.5776697,6.72302778 16.5266216,6.68239614 16.4653349,6.67223309 L11.951422,6.02214734 C11.5939817,5.97135266 11.2773922,5.74788889 11.1242064,5.42283575 L9.16340367,1.461343 C9.14298853,1.42071135 9.08170183,1.39024275 9.02043578,1.39024275 C8.95916972,1.39024275 8.89788303,1.42071135 8.87746789,1.47150604 L6.91666514,5.43299879 C6.75326147,5.75805193 6.44688991,5.97135266 6.08944954,6.03231039 L1.55510092,6.68239614 C1.49383486,6.69255918 1.44276606,6.73319082 1.43254817,6.76365942 C1.42233028,6.79412802 1.43254817,6.82459662 1.46318119,6.85508575 L4.77202294,10.0750664 C5.02732569,10.3188563 5.13968119,10.674378 5.0783945,11.0197367 L4.3124656,15.4687886 C4.30224771,15.4992572 4.32268349,15.5398889 4.3635344,15.5703575 C4.39416743,15.590663 4.42480046,15.6008261 4.46565138,15.6008261 C4.4962844,15.6008261 4.52691743,15.590663 4.5575711,15.5805205 L8.48937385,13.5185109 C8.65277752,13.4270845 8.82637844,13.3762899 9.01021789,13.3762899 Z" id="形状"></path>
                    </g>
                </g>
            </g>
        </g>
    </g>
</svg>