<?xml version="1.0" encoding="UTF-8"?>
<svg width="26px" height="20px" viewBox="0 0 26 20" version="1.1" xmlns="http://www.w3.org/2000/svg" xmlns:xlink="http://www.w3.org/1999/xlink">
    <!-- Generator: Sketch 57.1 (83088) - https://sketch.com -->
    <title>编组 2</title>
    <desc>Created with Sketch.</desc>
    <g id="理财" stroke="none" stroke-width="1" fill="none" fill-rule="evenodd">
        <g id="7-理财" transform="translate(-105.000000, -214.000000)" fill="#ddd" fill-rule="nonzero">
            <g id="编组-2" transform="translate(105.000000, 211.000000)">
                <path d="M2.75584842,20.7777778 L9.7337273,20.7777778 L8.80138411,16.3333333 L3.65143331,16.3333333 L2.75584842,20.7777778 Z M10.6199711,14.1111111 L12.512379,23 L0,23 L1.81779835,14.1111111 L10.6199711,14.1111111 Z M24.1075921,14.1111111 L26,23 L13.487621,23 L15.3054193,14.1111111 L24.1075921,14.1111111 Z M22.2890051,16.3333333 L17.1390543,16.3333333 L16.2434694,20.7777778 L23.2213483,20.7777778 L22.2890051,16.3333333 Z M17.3637816,3 L19.2561895,11.8888889 L6.74381049,11.8888889 L8.56160884,3 L17.3637816,3 Z M15.5451946,5.22222222 L10.3952438,5.22222222 L9.49965891,9.66666667 L16.4775378,9.66666667 L15.5451946,5.22222222 Z" id="Combined-Shape"></path>
            </g>
        </g>
    </g>
</svg>