<?xml version="1.0" encoding="UTF-8"?>
<svg width="18px" height="18px" viewBox="0 0 18 18" version="1.1" xmlns="http://www.w3.org/2000/svg" xmlns:xlink="http://www.w3.org/1999/xlink">
    <!-- Generator: Sketch 57.1 (83088) - https://sketch.com -->
    <title>编组 6</title>
    <desc>Created with Sketch.</desc>
    <g id="我的" stroke="none" stroke-width="1" fill="none" fill-rule="evenodd">
        <g id="5.16-我的-待办" transform="translate(-36.000000, -303.000000)" fill="#DA8C2A" fill-rule="nonzero">
            <g id="分组-5" transform="translate(16.000000, 287.000000)">
                <g id="编组-6" transform="translate(17.000000, 14.000000)">
                    <path d="M18.5454545,5.26628367 L18.5454545,20 L5.45454545,20 L5.45454545,5.26628367 L18.5454545,5.26628367 Z M16.9090909,6.90575085 L7.09090909,6.90575085 L7.09090909,18.3605328 L16.9090909,18.3605328 L16.9090909,6.90575085 Z M12.8181818,7.70843724 L12.8191495,8.60377989 L13.0062121,8.6433936 C14.239404,8.93405604 15.1851495,9.75176763 15.2669746,10.8342395 L15.2669746,10.8342395 L15.2727273,10.9873716 L13.6363636,10.9873716 L13.6270523,10.9115895 C13.5715642,10.681614 13.2715026,10.4325823 12.8190913,10.2888806 L12.8190913,10.2888806 L12.8191457,11.8827135 L12.9976195,11.9203123 C14.2925761,12.2226353 15.2727273,13.1055413 15.2727273,14.266306 C15.2727273,15.4798326 14.2014464,16.3896667 12.8191457,16.6498984 L12.8191457,16.6498984 L12.8181818,17.5452403 L11.1818182,17.5452403 L11.1808543,16.6498984 L10.9937915,16.6102848 C9.76059776,16.3196231 8.8148506,15.501911 8.73302538,14.419438 L8.73302538,14.419438 L8.72727273,14.266306 L10.3636364,14.266306 L10.3729477,14.3420881 C10.4284358,14.5720636 10.7284974,14.8210953 11.1809087,14.964797 L11.1809087,14.964797 L11.1808543,13.370964 L11.0023805,13.3333653 C9.70742386,13.0310423 8.72727273,12.1481362 8.72727273,10.9873716 C8.72727273,9.77384493 9.79855361,8.86401083 11.1808543,8.60377917 L11.1808543,8.60377917 L11.1818182,7.70843724 L12.8181818,7.70843724 Z M12.8190913,14.964797 L12.8190913,14.964797 L12.964126,14.9131659 C13.3815432,14.7475932 13.6363636,14.4905112 13.6363636,14.266306 C13.6363636,14.017189 13.3217705,13.7274835 12.8190913,13.5678149 L12.8190913,13.5678149 Z M11.1809087,10.2888806 C10.6782295,10.4485492 10.3636364,10.7382547 10.3636364,10.9873716 C10.3636364,11.2364885 10.6782295,11.526194 11.1809087,11.6858626 L11.1809087,11.6858626 Z M21,2 L21,10.1683032 L18.551,10.168 L18.5510476,8.52883606 L19.3636364,8.52883606 L19.3636364,3.63946718 L4.63636364,3.63946718 L4.63636364,8.52883606 L5.4535467,8.52883606 L5.453,10.168 L3,10.1683032 L3,2 L21,2 Z" id="Combined-Shape"></path>
                </g>
            </g>
        </g>
    </g>
</svg>