<?xml version="1.0" encoding="UTF-8"?>
<svg width="18px" height="21px" viewBox="0 0 18 21" version="1.1" xmlns="http://www.w3.org/2000/svg" xmlns:xlink="http://www.w3.org/1999/xlink">
    <!-- Generator: Sketch 57.1 (83088) - https://sketch.com -->
    <title>编组</title>
    <desc>Created with Sketch.</desc>
    <g id="我的" stroke="none" stroke-width="1" fill="none" fill-rule="evenodd">
        <g id="5.16-我的-待办" transform="translate(-36.000000, -488.000000)" fill="#374497" fill-rule="nonzero">
            <g id="编组" transform="translate(33.000000, 487.000000)">
                <path d="M17.7854191,3.50073942 C18.7519809,4.51965667 19.4245837,5.7313908 19.8033912,7.01921818 L21,7.01967479 L21,15.6192102 L17.824,15.619 L17.7683382,15.6803252 L17.739,15.649 L11.9914595,21.7090031 L6.252,15.658 L6.21458088,15.6983314 L6.142,15.619 L3,15.6192102 L3,7.01967479 L4.21112099,7.01902217 C4.56830174,5.82757836 5.1766754,4.70109091 6.03611244,3.73193929 L6.23166185,3.51874561 C9.4268606,0.15047359 14.5996539,0.142411947 17.7854191,3.50073942 Z M15.204,15.619 L8.786,15.619 L11.9952553,19.0024285 L15.204,15.619 Z M19.3636364,8.73958187 L4.63636364,8.73958187 L4.63636364,13.8993031 L19.3636364,13.8993031 L19.3636364,8.73958187 Z M12.8181818,10.0295122 L12.8181818,10.6168225 C12.6992536,10.6045228 12.5930111,10.598127 12.4334888,10.5960606 L12.3028264,10.5952981 L11.929524,10.5952981 L11.929524,12.1450594 C11.929524,12.2834309 11.9332405,12.3941282 11.9434609,12.5017985 L11.9559525,12.6093728 L11.2258657,12.6093728 C11.2407317,12.5009818 11.2481647,12.4029686 11.2509521,12.2790107 L11.2522941,12.1450594 L11.2522941,10.5952981 L10.7531922,10.5957655 C10.6504383,10.5968675 10.5828659,10.6002366 10.4638743,10.6090971 L10.3636364,10.6168225 L10.3636364,10.0295122 C10.4508504,10.0393519 10.5845785,10.0472237 10.737758,10.0499789 L10.8558669,10.0510366 L12.3028264,10.0510366 C12.5340756,10.0510366 12.666218,10.0448868 12.8181818,10.0295122 Z M14.5931743,10.0295122 C14.6134703,10.1361795 14.6360858,10.2210172 14.6869997,10.3554676 L14.730897,10.4667241 L15.2745394,11.8031664 L15.8145575,10.4667241 C15.8812443,10.3005216 15.913138,10.2037768 15.9343618,10.1050475 L15.948656,10.0295122 L16.9090909,10.0295122 C16.8927816,10.1411408 16.884627,10.24056 16.881569,10.3709387 L16.8800966,10.513236 L16.8800966,12.1287497 C16.8800966,12.317278 16.8847357,12.4323795 16.8977252,12.5343832 L16.9090909,12.6093728 L16.1951072,12.6093728 C16.2125038,12.4952636 16.2206222,12.3970304 16.2231737,12.2495815 L16.2241015,12.1287497 L16.2241015,11.4527766 C16.2241015,11.3783576 16.2349743,11.145798 16.2422229,11.0496734 C16.2530957,10.8853313 16.2530957,10.8853313 16.25672,10.8388194 C16.1902748,11.040371 16.154032,11.1514828 16.1165308,11.2475213 L16.0936273,11.3039385 L15.7420719,12.1535561 C15.6695862,12.3296812 15.6249351,12.4522246 15.6006959,12.5450003 L15.5862277,12.6093728 L14.9556025,12.6093728 C14.9405014,12.518933 14.910299,12.4241865 14.8440216,12.258739 L14.7997584,12.1504553 L14.4663244,11.3256441 C14.4627001,11.3101401 14.3539716,11.0217663 14.3430988,10.9969599 C14.3032317,10.8853313 14.3032317,10.8853313 14.2851102,10.8419202 C14.3014195,10.9884327 14.3136515,11.168085 14.3187481,11.3180859 L14.3213531,11.4558774 L14.3213531,12.1287497 C14.3213531,12.2999136 14.3259921,12.4214647 14.3389816,12.5299181 L14.3503473,12.6093728 L13.6363636,12.6093728 C13.6526729,12.504721 13.6608275,12.4053018 13.6638855,12.2731789 L13.6653579,12.1287497 L13.6653579,10.513236 C13.6653579,10.3892043 13.6605255,10.2748194 13.6519346,10.1728378 L13.6363636,10.0295122 L14.5931743,10.0295122 Z M8.68808411,10.0295122 C8.70815633,10.1194352 8.72822855,10.2000559 8.78557774,10.3643979 L9.40781648,12.2310759 C9.46229822,12.395418 9.50817757,12.5225506 9.54545455,12.6093728 L8.87446899,12.6093728 C8.85152931,12.4605347 8.83432455,12.379914 8.80564996,12.274487 L8.72822855,12.0109196 L7.91100255,12.0109196 L7.83358114,12.274487 C7.79630416,12.3985188 7.77623195,12.4946434 7.76189465,12.6093728 L7.09090909,12.6093728 C7.13392099,12.516349 7.15972812,12.4419299 7.22854715,12.2310759 L7.84791844,10.3643979 C7.89953271,10.212459 7.92533985,10.1194352 7.93967715,10.0295122 L8.68808411,10.0295122 Z M8.21345455,10.8894657 L7.90909091,11.7494193 L8.52436364,11.7494193 L8.21345455,10.8894657 Z M7.51351477,4.87003223 C6.91002539,5.50621062 6.45273527,6.23800587 6.14170968,7.01886846 L17.8728777,7.01916981 C17.5639322,6.23229637 17.106252,5.49536013 16.4997704,4.85602742 C14.0219531,2.24399494 9.99866935,2.25026511 7.51351477,4.87003223 Z" id="Combined-Shape"></path>
            </g>
        </g>
    </g>
</svg>