<?xml version="1.0" encoding="UTF-8"?>
<svg width="37px" height="37px" viewBox="0 0 37 37" version="1.1" xmlns="http://www.w3.org/2000/svg" xmlns:xlink="http://www.w3.org/1999/xlink">
    <!-- Generator: Sketch 57.1 (83088) - https://sketch.com -->
    <title>分组 5</title>
    <desc>Created with Sketch.</desc>
    <g id="收支明细" stroke="none" stroke-width="1" fill="none" fill-rule="evenodd">
        <g id="2.2-收支分析" transform="translate(-23.000000, -613.000000)" fill-rule="nonzero">
            <g id="分组-5" transform="translate(24.000000, 614.000000)">
                <g id="tuikuan" transform="translate(7.000000, 8.000000)" fill="#666666">
                    <path d="M19.2559156,5.64246393 C18.7915871,4.54408435 18.1263263,3.55689234 17.2796004,2.71018868 C16.4328746,1.86348502 15.4457048,1.198202 14.3473252,0.733873474 C13.2099223,0.251986681 12.0022863,0.00812430633 10.7556049,0.00812430633 C9.5108768,0.00812430633 8.30128746,0.252008879 7.16388457,0.733873474 C6.06550499,1.198202 5.07831299,1.86346282 4.23160932,2.71018868 C3.38490566,3.55691454 2.71962264,4.54408435 2.25529412,5.64246393 C2.06408435,6.09314095 1.9099667,6.55942286 1.79291898,7.03349612 L1.33249723,5.99948946 C1.22128746,5.74781354 0.971564928,5.58588235 0.696470588,5.58588235 C0.59891232,5.58588235 0.503329634,5.60539401 0.413584906,5.6463485 C0.243862375,5.72244173 0.113140954,5.85900111 0.0468146504,6.03265261 C-0.0195116537,6.20628191 -0.015627081,6.39553829 0.0604661487,6.56526082 L1.48661487,9.77263041 C1.49442841,9.79018868 1.50221976,9.80579356 1.51198668,9.82337403 C1.51198668,9.82532741 1.51394007,9.8272808 1.51587125,9.82921199 C1.52368479,9.84481687 1.53147614,9.85846837 1.54124306,9.87018868 C1.54124306,9.87018868 1.54319645,9.87214206 1.54319645,9.87409545 C1.55100999,9.88386238 1.55684795,9.89556049 1.56466149,9.90530522 C1.56856826,9.90921199 1.57247503,9.91507214 1.5763818,9.91895671 C1.58221976,9.92677026 1.58614872,9.93260821 1.59198668,9.93846837 C1.59980022,9.94823529 1.60759156,9.95798002 1.61735849,9.96579356 L1.61931188,9.96774695 C1.62319645,9.97165372 1.62712542,9.97751387 1.63103219,9.98139845 L1.64468368,9.99504994 L1.64663707,9.99700333 C1.65247503,10.0028413 1.65835738,10.0087236 1.66419534,10.0126082 C1.6700333,10.016515 1.67396226,10.0204218 1.67980022,10.0243285 C1.68761376,10.0321421 1.69735849,10.03798 1.70517203,10.0457936 C1.70712542,10.0477469 1.71100999,10.0497003 1.71298557,10.0516315 C1.72470588,10.0613984 1.73835738,10.0691898 1.75200888,10.0789567 L1.75396226,10.0809101 C1.76568257,10.0887236 1.77933407,10.096515 1.79298557,10.1043285 L1.79689234,10.1062819 C1.82614872,10.1218868 1.8554273,10.1355383 1.88468368,10.1453052 L1.88663707,10.1453052 C1.90028857,10.149212 1.91200888,10.1550721 1.92761376,10.1589567 L1.9354273,10.1628635 C1.9490788,10.1667703 1.96079911,10.170677 1.97249723,10.1726304 L1.97833518,10.1745838 L1.98028857,10.1745838 C1.99394007,10.1765372 2.00759156,10.1804218 2.02126526,10.1823973 C2.02517203,10.1823973 2.03103219,10.1843507 2.03687014,10.1843507 L2.03882353,10.1843507 C2.04663707,10.1863041 2.0563818,10.1863041 2.06419534,10.1863041 L2.06614872,10.1863041 C2.07198668,10.1863041 2.07786903,10.1882575 2.08370699,10.1882575 C2.09152053,10.1882575 2.10126526,10.1882575 2.1090788,10.1902109 L2.12468368,10.1902109 C2.14224195,10.1902109 2.16175361,10.1902109 2.18321865,10.1882575 L2.18712542,10.1882575 C2.20663707,10.1863041 2.22419534,10.1843507 2.24370699,10.180444 C2.24761376,10.180444 2.24954495,10.1784906 2.25152053,10.1784906 C2.27103219,10.1745838 2.28859046,10.170677 2.30419534,10.1667703 C2.30614872,10.1667703 2.3100333,10.1648169 2.31200888,10.1648169 L2.31396226,10.1648169 C2.32761376,10.1609101 2.34126526,10.1570033 2.35493896,10.1511654 L2.35689234,10.1511654 C2.36077691,10.149212 2.36470588,10.149212 2.36861265,10.1472586 C2.38033296,10.1433518 2.39398446,10.1374917 2.40568257,10.1316537 L2.40763596,10.1316537 C2.40958935,10.1316537 2.41154273,10.1297003 2.41347392,10.1297003 C2.41931188,10.1277469 2.42519423,10.1238624 2.4290788,10.1218868 C2.44468368,10.1140733 2.46028857,10.1062819 2.47394007,10.0984684 C2.47589345,10.096515 2.47784684,10.096515 2.47977802,10.0945616 L2.48173141,10.0926082 C2.51880133,10.0691898 2.55391787,10.043818 2.58710322,10.0145616 L5.23260821,7.70071032 C5.52135405,7.44903441 5.55061043,7.00812431 5.29700333,6.71937847 C5.16432852,6.56914539 4.97509434,6.48137625 4.77413984,6.48137625 C4.6063485,6.48137625 4.44246393,6.5418424 4.31567148,6.65305216 L3.06122087,7.75143174 C3.76357381,4.10312986 7.00603774,1.39715871 10.7558047,1.39715871 C15.0752053,1.39715871 18.5908546,4.91278579 18.5908546,9.23220866 C18.5908546,13.5516315 15.0752275,17.0672586 10.7558047,17.0672586 C8.88677026,17.0672586 7.07629301,16.398091 5.65795782,15.1826193 C5.53114317,15.0753163 5.37116537,15.014828 5.20532741,15.014828 C5.00241953,15.014828 4.80927858,15.1026193 4.67662597,15.256737 C4.42690344,15.5474362 4.46006659,15.9883463 4.7527192,16.2361154 C6.4227303,17.6681243 8.55318535,18.4543618 10.7558269,18.4543618 C12.0005549,18.4543618 13.2101443,18.2104772 14.3475472,17.7286127 C15.4459267,17.2642841 16.4331188,16.5990233 17.2798224,15.7522974 C18.1265483,14.9055938 18.7918091,13.9184018 19.2561376,12.8200222 C19.7380244,11.6826193 19.9818868,10.4749612 19.9818868,9.22830189 C19.9818868,7.98945616 19.7380022,6.781798 19.2561376,5.64244173 L19.2559156,5.64246393 Z M13.5669256,5.792697 C13.4362264,5.66199778 13.2606215,5.58978912 13.0752941,5.58978912 C12.8899667,5.58978912 12.7143618,5.66197558 12.5836626,5.792697 L10.7536515,7.6226859 L8.9236404,5.792697 C8.79294118,5.66199778 8.61733629,5.58978912 8.43200888,5.58978912 C8.24668147,5.58978912 8.07107658,5.66197558 7.94037736,5.792697 C7.66918979,6.06388457 7.66918979,6.50479467 7.94037736,6.77598224 L9.07389567,7.90950055 L7.96770255,7.90950055 C7.89358491,7.90950055 7.83307436,7.9699667 7.83307436,8.04412875 L7.83307436,9.16592675 C7.83307436,9.24006659 7.89354051,9.30055494 7.96770255,9.30055494 L10.0571809,9.30055494 L10.0571809,10.2311654 L7.96770255,10.2311654 C7.89358491,10.2311654 7.83307436,10.2916315 7.83307436,10.3657936 L7.83307436,11.4875916 C7.83307436,11.5617314 7.89354051,11.6222198 7.96770255,11.6222198 L10.0571809,11.6222198 L10.0571809,13.7116981 C10.0571809,14.0960488 10.3693452,14.4062375 10.7517203,14.4062375 C11.1340954,14.4062375 11.4462597,14.0940733 11.4462597,13.7116981 L11.4462597,11.6222198 L13.5376915,11.6222198 C13.6118313,11.6222198 13.6723196,11.5617536 13.6723196,11.4875916 L13.6723196,10.3657936 C13.6723196,10.2916537 13.6118535,10.2311654 13.5376915,10.2311654 L11.4462597,10.2311654 L11.4462597,9.30055494 L13.5376915,9.30055494 C13.6118313,9.30055494 13.6723196,9.24008879 13.6723196,9.16592675 L13.6723196,8.04412875 C13.6723196,7.9699889 13.6118535,7.90950055 13.5376915,7.90950055 L12.4314983,7.90950055 L13.56697,6.77402886 C13.8381576,6.50481687 13.8381576,6.06388457 13.56697,5.792697 L13.5669256,5.792697 Z" id="形状"></path>
                </g>
                <circle id="椭圆形" stroke="#DBDBDB" cx="17.5" cy="17.5" r="17.5"></circle>
            </g>
        </g>
    </g>
</svg>