<?xml version="1.0" encoding="UTF-8"?>
<svg width="12px" height="12px" viewBox="0 0 12 12" version="1.1" xmlns="http://www.w3.org/2000/svg" xmlns:xlink="http://www.w3.org/1999/xlink">
    <!-- Generator: Sketch 57.1 (83088) - https://sketch.com -->
    <title>路径</title>
    <desc>Created with Sketch.</desc>
    <g id="网点预约" stroke="none" stroke-width="1" fill="none" fill-rule="evenodd">
        <g id="1.5-选择网点-详情" transform="translate(-343.000000, -484.000000)" fill="#D6D6D6">
            <g id="编组-3">
                <g id="guanbi-4" transform="translate(343.000000, 484.000000)">
                    <path d="M7.09182692,6.01298077 L11.7735577,1.32692308 C12.075,1.02403846 12.075,0.536538462 11.7735577,0.233653846 C11.4721154,-0.0692307692 10.9831731,-0.0692307692 10.6817308,0.233653846 L6,4.91971154 L1.31971154,0.233653846 C1.01826923,-0.0692307692 0.529326923,-0.0692307692 0.227884615,0.233653846 C-0.0735576923,0.536538462 -0.0735576923,1.02403846 0.227884615,1.32692308 L4.90817308,6.01153846 L0.227884615,10.6975962 C-0.0735576923,11.0004808 -0.0735576923,11.4879808 0.227884615,11.7908654 C0.377884615,11.9423077 0.575480769,12.0173077 0.774519231,12.0173077 C0.972115385,12.0173077 1.16971154,11.9423077 1.32115385,11.7908654 L6,7.10625 L10.6802885,11.7908654 C10.8302885,11.9423077 11.0293269,12.0173077 11.2269231,12.0173077 C11.4245192,12.0173077 11.6221154,11.9423077 11.7721154,11.7908654 C12.0735577,11.4879808 12.0735577,11.0004808 11.7721154,10.6975962 L7.09182692,6.01298077 Z" id="路径"></path>
                </g>
            </g>
        </g>
    </g>
</svg>