<?xml version="1.0" encoding="UTF-8"?>
<svg width="48px" height="48px" viewBox="0 0 48 48" version="1.1" xmlns="http://www.w3.org/2000/svg" xmlns:xlink="http://www.w3.org/1999/xlink">
    <!-- Generator: Sketch 57.1 (83088) - https://sketch.com -->
    <title>分组 2</title>
    <desc>Created with Sketch.</desc>
    <defs>
        <circle id="path-1" cx="22" cy="22" r="22"></circle>
        <filter x="-5.7%" y="-3.4%" width="111.4%" height="111.4%" filterUnits="objectBoundingBox" id="filter-2">
            <feMorphology radius="0.5" operator="dilate" in="SourceAlpha" result="shadowSpreadOuter1"></feMorphology>
            <feOffset dx="0" dy="1" in="shadowSpreadOuter1" result="shadowOffsetOuter1"></feOffset>
            <feMorphology radius="1" operator="erode" in="SourceAlpha" result="shadowInner"></feMorphology>
            <feOffset dx="0" dy="1" in="shadowInner" result="shadowInner"></feOffset>
            <feComposite in="shadowOffsetOuter1" in2="shadowInner" operator="out" result="shadowOffsetOuter1"></feComposite>
            <feGaussianBlur stdDeviation="0.5" in="shadowOffsetOuter1" result="shadowBlurOuter1"></feGaussianBlur>
            <feColorMatrix values="0 0 0 0 0.908338306   0 0 0 0 0.926499688   0 0 0 0 0.955383716  0 0 0 1 0" type="matrix" in="shadowBlurOuter1"></feColorMatrix>
        </filter>
    </defs>
    <g id="转账" stroke="none" stroke-width="1" fill="none" fill-rule="evenodd">
        <g id="1.5-无预约转账" transform="translate(-30.000000, -570.000000)" fill-rule="nonzero">
            <g id="分组-6" transform="translate(0.000000, 516.000000)">
                <g id="分组-2" transform="translate(32.000000, 55.000000)">
                    <g id="椭圆形-copy-5">
                        <use fill="white" fill-opacity="1" filter="url(#filter-2)" xlink:href="#path-1"></use>
                        <use stroke="#E4E6F3" stroke-width="1" xlink:href="#path-1"></use>
                    </g>
                    <g id="fangzidichan" transform="translate(13.000000, 14.000000)" fill="#666666">
                        <path d="M17.3571429,15.6907341 L16.7142857,15.6907341 L16.7142857,5.44163658 C16.7142857,5.02907461 16.5582924,4.64302527 16.2750737,4.35459807 C15.9918549,4.06617088 15.6127299,3.90734055 15.2075893,3.90734055 L12.8571429,3.90734055 L12.8571429,1.53429603 C12.8571429,1.12173406 12.7011496,0.735684717 12.4179308,0.447257521 C12.134692,0.158850782 11.7555871,0 11.3504464,0 L2.8125,0 C1.9706183,0 1.28571429,0.688285199 1.28571429,1.53429603 L1.28571429,15.6907341 L0.642857143,15.6907341 C0.287819196,15.6907341 0,15.9838255 0,16.345367 C0,16.7069085 0.287819196,17 0.642857143,17 L17.3571429,17 C17.7121808,17 18,16.7069085 18,16.345367 C18,15.9838255 17.7121808,15.6907341 17.3571429,15.6907341 Z M15.2075893,5.19614922 C15.3472701,5.19614922 15.4486607,5.29939711 15.4486607,5.44163658 L15.4486607,15.6907341 L12.8571429,15.6907341 L12.8571429,5.19614922 L15.2075893,5.19614922 Z M2.55133929,1.53429603 C2.55133929,1.3989302 2.6685,1.28880866 2.8125,1.28880866 L11.3504464,1.28880866 C11.4901272,1.28880866 11.5915179,1.39205656 11.5915179,1.53429603 L11.5915179,15.6907341 L10.2857143,15.6907341 L10.2857143,10.4434416 C10.2857143,9.37747413 9.4340692,8.51022864 8.38727679,8.51022864 L5.77566964,8.51022864 C4.72887723,8.51022864 3.87723214,9.37747413 3.87723214,10.4434416 L3.87723214,15.6907341 L2.55133929,15.6907341 L2.55133929,1.53429603 Z M9.02008929,15.6907341 L5.14285714,15.6907341 L5.14285714,10.4434416 C5.14285714,10.0881191 5.42673884,9.7990373 5.77566964,9.7990373 L8.38727679,9.7990373 C8.73620759,9.7990373 9.02008929,10.0881191 9.02008929,10.4434416 L9.02008929,15.6907341 Z" id="形状"></path>
                        <path d="M4.47991071,4.58243081 L9.62276786,4.58243081 C9.9778058,4.58243081 10.265625,4.28933935 10.265625,3.92779783 C10.265625,3.56625632 9.9778058,3.27316486 9.62276786,3.27316486 L4.47991071,3.27316486 C4.12487277,3.27316486 3.83705357,3.56625632 3.83705357,3.92779783 C3.83705357,4.28933935 4.12487277,4.58243081 4.47991071,4.58243081 Z M4.47991071,7.18050542 L9.62276786,7.18050542 C9.9778058,7.18050542 10.265625,6.88741396 10.265625,6.52587244 C10.265625,6.16433093 9.9778058,5.87123947 9.62276786,5.87123947 L4.47991071,5.87123947 C4.12487277,5.87123947 3.83705357,6.16433093 3.83705357,6.52587244 C3.83705357,6.88741396 4.12487277,7.18050542 4.47991071,7.18050542 Z" id="形状"></path>
                    </g>
                </g>
            </g>
        </g>
    </g>
</svg>