<?xml version="1.0" encoding="UTF-8"?>
<svg width="48px" height="48px" viewBox="0 0 48 48" version="1.1" xmlns="http://www.w3.org/2000/svg" xmlns:xlink="http://www.w3.org/1999/xlink">
    <!-- Generator: Sketch 57.1 (83088) - https://sketch.com -->
    <title>分组 3</title>
    <desc>Created with Sketch.</desc>
    <defs>
        <circle id="path-1" cx="22" cy="22" r="22"></circle>
        <filter x="-5.7%" y="-3.4%" width="111.4%" height="111.4%" filterUnits="objectBoundingBox" id="filter-2">
            <feMorphology radius="0.5" operator="dilate" in="SourceAlpha" result="shadowSpreadOuter1"></feMorphology>
            <feOffset dx="0" dy="1" in="shadowSpreadOuter1" result="shadowOffsetOuter1"></feOffset>
            <feMorphology radius="1" operator="erode" in="SourceAlpha" result="shadowInner"></feMorphology>
            <feOffset dx="0" dy="1" in="shadowInner" result="shadowInner"></feOffset>
            <feComposite in="shadowOffsetOuter1" in2="shadowInner" operator="out" result="shadowOffsetOuter1"></feComposite>
            <feGaussianBlur stdDeviation="0.5" in="shadowOffsetOuter1" result="shadowBlurOuter1"></feGaussianBlur>
            <feColorMatrix values="0 0 0 0 0.909803922   0 0 0 0 0.925490196   0 0 0 0 0.956862745  0 0 0 1 0" type="matrix" in="shadowBlurOuter1"></feColorMatrix>
        </filter>
    </defs>
    <g id="转账" stroke="none" stroke-width="1" fill="none" fill-rule="evenodd">
        <g id="1.5-无预约转账" transform="translate(-119.000000, -570.000000)">
            <g id="分组-6" transform="translate(0.000000, 516.000000)">
                <g id="分组-3" transform="translate(121.000000, 55.000000)">
                    <g id="椭圆形" fill-rule="nonzero">
                        <use fill="white" fill-opacity="1" filter="url(#filter-2)" xlink:href="#path-1"></use>
                        <use stroke="#E4E6F3" stroke-width="1" xlink:href="#path-1"></use>
                    </g>
                    <g id="xinyongqia" transform="translate(12.000000, 14.000000)" fill="#666666">
                        <path d="M17.8571429,0 L2.14285714,0 C0.928571429,0 0,0.928571429 0,2.14285714 L0,13.5714286 C0,14.7857143 0.928571429,15.7142857 2.14285714,15.7142857 L17.8571429,15.7142857 C19.0714286,15.7142857 20,14.7857143 20,13.5714286 L20,2.14285714 C20,0.928571429 19.0714286,0 17.8571429,0 Z M18.5714286,13.5714286 C18.5714286,14 18.2857143,14.2857143 17.8571429,14.2857143 L2.14285714,14.2857143 C1.71428571,14.2857143 1.42857143,14 1.42857143,13.5714286 L1.42857143,5.71428571 L18.5714286,5.71428571 L18.5714286,13.5714286 Z M18.5714286,4.28571429 L1.42857143,4.28571429 L1.42857143,2.14285714 C1.42857143,1.71428571 1.71428571,1.42857143 2.14285714,1.42857143 L17.8571429,1.42857143 C18.2857143,1.42857143 18.5714286,1.71428571 18.5714286,2.14285714 L18.5714286,4.28571429 Z" id="形状" fill-rule="nonzero"></path>
                        <path d="M3.57142857,12.4285714 L6.42857143,12.4285714 C6.85714286,12.4285714 7.14285714,12.1428571 7.14285714,11.7142857 C7.14285714,11.2857143 6.85714286,11 6.42857143,11 L3.57142857,11 C3.14285714,11 2.85714286,11.2857143 2.85714286,11.7142857 C2.85714286,12.1428571 3.14285714,12.4285714 3.57142857,12.4285714 Z" id="路径"></path>
                    </g>
                </g>
            </g>
        </g>
    </g>
</svg>