<?xml version="1.0" encoding="UTF-8"?>
<svg width="48px" height="48px" viewBox="0 0 48 48" version="1.1" xmlns="http://www.w3.org/2000/svg" xmlns:xlink="http://www.w3.org/1999/xlink">
    <!-- Generator: Sketch 57.1 (83088) - https://sketch.com -->
    <title>分组 4</title>
    <desc>Created with Sketch.</desc>
    <defs>
        <circle id="path-1" cx="22" cy="22" r="22"></circle>
        <filter x="-5.7%" y="-3.4%" width="111.4%" height="111.4%" filterUnits="objectBoundingBox" id="filter-2">
            <feMorphology radius="0.5" operator="dilate" in="SourceAlpha" result="shadowSpreadOuter1"></feMorphology>
            <feOffset dx="0" dy="1" in="shadowSpreadOuter1" result="shadowOffsetOuter1"></feOffset>
            <feMorphology radius="1" operator="erode" in="SourceAlpha" result="shadowInner"></feMorphology>
            <feOffset dx="0" dy="1" in="shadowInner" result="shadowInner"></feOffset>
            <feComposite in="shadowOffsetOuter1" in2="shadowInner" operator="out" result="shadowOffsetOuter1"></feComposite>
            <feGaussianBlur stdDeviation="0.5" in="shadowOffsetOuter1" result="shadowBlurOuter1"></feGaussianBlur>
            <feColorMatrix values="0 0 0 0 0.909803922   0 0 0 0 0.925490196   0 0 0 0 0.956862745  0 0 0 1 0" type="matrix" in="shadowBlurOuter1"></feColorMatrix>
        </filter>
    </defs>
    <g id="转账" stroke="none" stroke-width="1" fill="none" fill-rule="evenodd">
        <g id="1.5-无预约转账" transform="translate(-208.000000, -570.000000)">
            <g id="分组-6" transform="translate(0.000000, 516.000000)">
                <g id="分组-4" transform="translate(210.000000, 55.000000)">
                    <g id="椭圆形-copy-4" fill-rule="nonzero">
                        <use fill="white" fill-opacity="1" filter="url(#filter-2)" xlink:href="#path-1"></use>
                        <use stroke="#E4E6F3" stroke-width="1" xlink:href="#path-1"></use>
                    </g>
                    <g id="menu-cwgl-normal" transform="translate(13.000000, 14.000000)" fill="#666666">
                        <path d="M12.5215054,8.37378392 C12.8609831,8.37378392 13.1373528,8.09306196 13.1373528,7.74487967 C13.1373528,7.39669739 12.8609831,7.11597542 12.5215054,7.11597542 L10.0080645,7.11597542 L12.3408858,4.73092678 C12.5802611,4.48502304 12.5802611,4.08678955 12.3408858,3.84088582 C12.1015105,3.59498208 11.7119816,3.59498208 11.4704301,3.84088582 L9.44444444,5.91039427 L7.41845878,3.83870968 C7.17908346,3.59280594 6.78955453,3.59280594 6.54800307,3.83870968 C6.30862775,4.08461342 6.30862775,4.4828469 6.54800307,4.72875064 L8.88082437,7.11597542 L6.36738351,7.11597542 C6.02790579,7.11597542 5.7515361,7.39669739 5.7515361,7.74487967 C5.7515361,8.09306196 6.02790579,8.37378392 6.36738351,8.37378392 L8.82859703,8.37378392 L8.82859703,9.5249616 L6.36738351,9.5249616 C6.02790579,9.5249616 5.7515361,9.80568356 5.7515361,10.1538658 C5.7515361,10.5020481 6.02790579,10.7827701 6.36738351,10.7827701 L8.82859703,10.7827701 L8.82859703,13.0764209 C8.82859703,13.3419099 9.10496672,13.5573477 9.44444444,13.5573477 C9.78392217,13.5573477 10.0602919,13.3419099 10.0602919,13.0764209 L10.0602919,10.7827701 L12.5215054,10.7827701 C12.8609831,10.7827701 13.1373528,10.5020481 13.1373528,10.1538658 C13.1373528,9.80568356 12.8609831,9.5249616 12.5215054,9.5249616 L10.0602919,9.5249616 L10.0602919,8.37378392 L12.5215054,8.37378392 L12.5215054,8.37378392 Z" id="路径"></path>
                        <path d="M16.3819764,8.35202253 C16.3819764,9.38351254 17.2045571,10.2235023 18.2164619,10.2235023 C18.5864055,10.2235023 18.8888889,10.5303379 18.8888889,10.9089862 L18.8888889,14.7433436 C18.8888889,15.8270609 18.0271377,16.7062212 16.9651818,16.7062212 L1.92370712,16.7062212 C0.861751152,16.7062212 0,15.8270609 0,14.7433436 L0,10.90681 C0,10.5281618 0.30030722,10.2213262 0.672427035,10.2213262 C1.66692268,10.1930364 2.45903738,9.36392729 2.45903738,8.34984639 C2.45903738,7.33576549 1.66692268,6.50665643 0.672427035,6.47836662 C0.302483359,6.47836662 0,6.17153098 0,5.79288274 L0,1.96287762 C0,0.879160266 0.861751152,5.68434189e-14 1.92370712,5.68434189e-14 L16.9630056,5.68434189e-14 C18.0271377,5.68434189e-14 18.8867127,0.876984127 18.8867127,1.96287762 L18.8867127,5.79723502 C18.8867127,6.17588326 18.5864055,6.48271889 18.2142857,6.48271889 C17.2045571,6.48054275 16.3819764,7.31835637 16.3819764,8.35202253 Z M17.546211,11.5204813 C16.0860215,11.1962366 15.0436508,9.87749616 15.0436508,8.35202253 C15.0436508,6.82872504 16.0838454,5.50998464 17.546211,5.18356375 L17.546211,1.96287762 C17.546211,1.63645673 17.2850742,1.37096774 16.9651818,1.37096774 L1.92370712,1.37096774 C1.60381464,1.37096774 1.34267793,1.63645673 1.34267793,1.96287762 L1.34267793,5.18573989 C2.80286738,5.50998464 3.8452381,6.82872504 3.8452381,8.35419867 C3.8452381,9.87749616 2.80504352,11.1962366 1.34267793,11.5226575 L1.34267793,14.7455197 C1.34267793,15.0741167 1.60381464,15.3396057 1.92370712,15.3396057 L16.9630056,15.3396057 C17.2850742,15.3396057 17.5440348,15.0741167 17.5440348,14.7455197 L17.546211,11.5204813 L17.546211,11.5204813 Z" id="形状" fill-rule="nonzero"></path>
                    </g>
                </g>
            </g>
        </g>
    </g>
</svg>