<?xml version="1.0" encoding="UTF-8"?>
<svg width="15px" height="15px" viewBox="0 0 15 15" version="1.1" xmlns="http://www.w3.org/2000/svg" xmlns:xlink="http://www.w3.org/1999/xlink">
    <!-- Generator: Sketch 57.1 (83088) - https://sketch.com -->
    <title>liuyan2</title>
    <desc>Created with Sketch.</desc>
    <g id="转账" stroke="none" stroke-width="1" fill="none" fill-rule="evenodd">
        <g id="1.6.1-预约交房租" transform="translate(-339.000000, -493.000000)" fill="#666666" fill-rule="nonzero">
            <g id="liuyan2" transform="translate(339.000000, 493.000000)">
                <path d="M14.0050077,0.995872043 C13.5782142,0.569078488 13.0786224,0.252745829 12.5979742,0.104977921 C11.9909914,-0.0819501768 11.437545,0.0144153293 11.0826511,0.369309146 L10.0329636,1.41899667 L1.26098947,10.1909708 C1.18572031,10.26624 1.13064896,10.3595356 1.10159705,10.4617227 L0.0366160793,14.1896334 C-0.0261113415,14.4086833 0.035081122,14.6439627 0.196008494,14.80489 C0.315024,14.924205 0.47503414,14.9884487 0.639012713,14.9884487 C0.69653625,14.9884487 0.754359293,14.9804931 0.811265104,14.9642825 L4.53917583,13.8993015 C4.64136295,13.8702308 4.73467723,13.8151595 4.80992768,13.7399091 L13.5819018,4.9679349 L14.6318889,3.91824737 C15.2856692,3.26383055 15.0161341,2.00731663 14.0050077,0.995872043 Z M11.9478441,1.27031153 C12.0625729,1.22503023 12.5768592,1.34005859 13.1189993,1.8818805 C13.6605217,2.42370241 13.7755501,2.93922412 13.7455622,3.03192068 L13.1388789,3.63890349 L11.3607408,1.86076546 L11.9478441,1.27031153 Z M2.01390573,11.8298956 L3.17098425,12.9869741 L1.5513214,13.4495584 L2.01390573,11.8298956 Z M4.36690473,12.4108776 L2.59000215,10.6339751 L10.4759679,2.74800935 L12.2528704,4.52491193 L4.36690473,12.4108776 Z" id="形状"></path>
            </g>
        </g>
    </g>
</svg>