<?xml version="1.0" encoding="UTF-8"?>
<svg width="27px" height="27px" viewBox="0 0 27 27" version="1.1" xmlns="http://www.w3.org/2000/svg" xmlns:xlink="http://www.w3.org/1999/xlink">
    <!-- Generator: Sketch 57.1 (83088) - https://sketch.com -->
    <title>Combined Shape</title>
    <desc>Created with Sketch.</desc>
    <g id="转账" stroke="none" stroke-width="1" fill="none" fill-rule="evenodd">
        <g id="1-转账" transform="translate(-258.000000, -90.000000)" fill="#7AA2AB" fill-rule="nonzero">
            <g id="分组-3" transform="translate(236.000000, 90.000000)">
                <path d="M49,0 L49,27 L23.202599,27 L23.202599,22.0841934 L25.6579352,22.0841934 L25.6579352,24.5454545 L46.5446638,24.5454545 L46.5446638,2.45454545 L25.6579352,2.45454545 L25.6579352,4.87987685 L23.202599,4.87987685 L23.202599,0 L49,0 Z M32.79432,6.75 C33.4688672,6.75 35.494076,9.78580889 35.494076,10.460867 C35.494076,11.1359913 33.7958342,11.2567415 33.8078182,11.8100786 C33.8196697,12.36699 34.9062196,13.8976909 35.8322324,14.8469245 C36.7806682,15.7721316 38.3134513,16.8593685 38.8690192,16.8711942 C39.4240575,16.8828875 39.544361,15.183935 40.2188862,15.183935 C40.8939411,15.183935 43.9317431,17.2087122 43.9317431,17.8827554 C43.9317431,18.5588284 41.9069096,20.2445432 40.556226,20.2445432 C39.2071536,20.2445432 36.6305482,18.6263188 34.4823433,16.5346249 L34.4823433,16.5346249 L34.1450035,16.1971069 C32.0502081,14.0481156 30.4318376,11.4725606 30.4318376,10.123349 C30.4318376,8.77471098 32.1197727,6.75 32.79432,6.75 Z M26.9389046,17.1830846 L26.9389046,19.63763 L22,19.63763 L22,17.1830846 L26.9389046,17.1830846 Z M26.9141811,12.2985806 L26.9141811,14.7531261 L22.0071142,14.7531261 L22.0071142,12.2985806 L26.9141811,12.2985806 Z M26.9356376,7.36085257 L26.9356376,9.81539803 L22.0042685,9.81539803 L22.0042685,7.36085257 L26.9356376,7.36085257 Z" id="Combined-Shape"></path>
            </g>
        </g>
    </g>
</svg>