<?xml version="1.0" encoding="UTF-8"?>
<svg width="55px" height="45px" viewBox="0 0 55 45" version="1.1" xmlns="http://www.w3.org/2000/svg" xmlns:xlink="http://www.w3.org/1999/xlink">
    <!-- Generator: Sketch 57.1 (83088) - https://sketch.com -->
    <title>hezi401</title>
    <desc>Created with Sketch.</desc>
    <g id="转账" stroke="none" stroke-width="1" fill="none" fill-rule="evenodd">
        <g id="1.3-转账记录查询" transform="translate(-161.000000, -223.000000)" fill="#BBBBBB" fill-rule="nonzero">
            <g id="分组-2" transform="translate(97.000000, 223.000000)">
                <g id="hezi401" transform="translate(64.000000, 0.000000)">
                    <path d="M5.0616908,26.205068 L5.0616908,35.3233848 C5.0616908,35.8584518 5.25440002,36.3243819 5.77011222,36.4852055 L32.9008556,44.9459172 C33.0204119,44.9819724 33.1049929,45 33.227626,45 C33.5307867,45 33.8103375,44.8910289 34.0403452,44.6858487 L49.1470138,31.1494039 C49.405278,30.9179566 49.5226366,30.5903001 49.5226366,30.2460408 L49.5226366,20.234521 L53.2992723,21.5181366 C53.4418106,21.5662102 53.5971584,21.590309 53.7411409,21.590309 C54.0877537,21.590309 54.4281502,21.4527787 54.6803236,21.194259 C55.0375483,20.8282551 55.0833238,20.3074368 54.8776794,19.7907691 L49.5226994,8.51905088 C49.5226994,8.51304166 49.5226994,8.50622714 49.5226994,8.49953648 C49.5226994,8.33642068 49.4869078,8.18538519 49.3931591,8.04110234 C49.2871659,7.79689325 49.1424927,7.58496036 48.900994,7.4512091 C48.8636954,7.43088935 48.839332,7.42264991 48.80128,7.40610909 C48.3532578,7.08824078 47.8788001,6.88454734 47.7630113,6.85035063 L25.675736,0.0583392431 C25.3322,-0.0453660172 24.9696379,-0.00931074427 24.6527257,0.154548489 L7.20748803,9.16984152 C5.84395582,9.87477691 5.28410073,10.3823998 5.05786052,10.7397926 C4.94207171,10.8698268 4.86056749,11.0204905 4.81033374,11.1846596 C4.71890832,11.3124636 4.63740409,11.4477016 4.57574215,11.5965069 L0.157684287,22.3560799 C-0.0685559275,22.9070062 -0.0502834091,23.5307244 0.205657518,24.0692606 C0.462351971,24.6069915 1.09460644,25.0179715 1.66972,25.1976281 L5.0616908,26.205068 Z M6.62169974,26.6905745 L27.0385147,33.0928549 C27.2502499,33.1574693 27.3919719,33.1920378 27.6128119,33.1920378 C28.5733439,33.1920378 29.3914632,32.5547524 29.6565718,31.6424065 L31.7909409,24.2380138 L32.4132742,43.1527583 L6.62169974,35.0873532 L6.62169974,26.6905745 Z M47.9625649,30.1032449 L33.780574,42.8039767 L33.1529661,18.3132484 L47.9625649,9.09692574 L47.9625649,30.1032449 Z M49.5226366,18.6052213 L49.5226366,12.0023449 L53.2200286,19.8696941 L49.5226366,18.6052213 Z M25.3055132,1.55537453 L46.6516525,8.11841669 L32.2434214,17.0781401 C31.293564,16.8534454 28.0264869,16.0155021 23.8513719,14.9340312 L7.90975575,10.5451439 C7.91741637,10.5413649 7.92501423,10.5369045 7.93261208,10.5334972 L25.3055132,1.55537453 Z M1.60416494,22.9343883 L6.0222228,11.9996811 C6.04357214,11.9467133 6.07402638,12.4501856 6.1083109,11.6810074 L6.62176257,11.6810074 L6.62176257,11.9549528 C14.4219329,14.1471352 20.5127745,15.6328955 24.3884335,16.6365564 L31.2455909,18.5461824 C31.4025085,18.5893619 31.4939339,18.690837 31.5731776,18.8305975 C31.6531121,18.9711633 31.6531121,19.1342172 31.6082157,19.2890316 L28.1286497,31.2169301 C28.0380406,31.5310194 27.6852741,31.7264734 27.3578129,31.624255 L1.9865065,23.7299573 C1.82349799,23.6788481 1.69176002,23.5660981 1.61860711,23.4135139 C1.54551704,23.2601862 1.54017971,23.0903798 1.60416494,22.9343883 Z" id="形状"></path>
                </g>
            </g>
        </g>
    </g>
</svg>