<?xml version="1.0" encoding="UTF-8"?>
<svg width="16px" height="15px" viewBox="0 0 16 15" version="1.1" xmlns="http://www.w3.org/2000/svg" xmlns:xlink="http://www.w3.org/1999/xlink">
    <!-- Generator: Sketch 57.1 (83088) - https://sketch.com -->
    <title>menu-cwgl-normal</title>
    <desc>Created with Sketch.</desc>
    <g id="转账" stroke="none" stroke-width="1" fill="none" fill-rule="evenodd">
        <g id="1.5.1-有预约转账" transform="translate(-267.000000, -114.000000)" fill="#666666">
            <g id="分组-7" transform="translate(16.000000, 95.000000)">
                <g id="menu-cwgl-normal" transform="translate(251.000000, 19.000000)">
                    <path d="M10.5444256,7.05160751 C10.8303016,7.05160751 11.0630339,6.81521007 11.0630339,6.52200393 C11.0630339,6.2287978 10.8303016,5.99240036 10.5444256,5.99240036 L8.4278438,5.99240036 L10.3923249,3.98393834 C10.5939041,3.77686151 10.5939041,3.44150699 10.3923249,3.23443016 C10.1907457,3.02735333 9.86272132,3.02735333 9.65930956,3.23443016 L7.95321637,4.97717412 L6.24712318,3.23259762 C6.04554397,3.02552079 5.71751961,3.02552079 5.51410785,3.23259762 C5.31252863,3.43967445 5.31252863,3.77502897 5.51410785,3.9821058 L7.47858895,5.99240036 L5.36200717,5.99240036 C5.07613119,5.99240036 4.84339882,6.2287978 4.84339882,6.52200393 C4.84339882,6.81521007 5.07613119,7.05160751 5.36200717,7.05160751 L7.43460803,7.05160751 L7.43460803,8.02102029 L5.36200717,8.02102029 C5.07613119,8.02102029 4.84339882,8.25741774 4.84339882,8.55062387 C4.84339882,8.84383001 5.07613119,9.08022745 5.36200717,9.08022745 L7.43460803,9.08022745 L7.43460803,11.0117229 C7.43460803,11.2352925 7.66734039,11.4167138 7.95321637,11.4167138 C8.23909235,11.4167138 8.47182472,11.2352925 8.47182472,11.0117229 L8.47182472,9.08022745 L10.5444256,9.08022745 C10.8303016,9.08022745 11.0630339,8.84383001 11.0630339,8.55062387 C11.0630339,8.25741774 10.8303016,8.02102029 10.5444256,8.02102029 L8.47182472,8.02102029 L8.47182472,7.05160751 L10.5444256,7.05160751 L10.5444256,7.05160751 Z" id="路径"></path>
                    <path d="M13.7953486,7.03328213 C13.7953486,7.9019053 14.4880481,8.6092651 15.3401784,8.6092651 C15.6517099,8.6092651 15.9064327,8.867653 15.9064327,9.18651467 L15.9064327,12.4154472 C15.9064327,13.3280513 15.1807476,14.0683968 14.2864689,14.0683968 L1.61996389,14.0683968 C0.725685181,14.0683968 0,13.3280513 0,12.4154472 L0,9.18468214 C0,8.86582047 0.25289029,8.60743256 0.566254346,8.60743256 C1.40372436,8.58360956 2.07076832,7.88541246 2.07076832,7.03144959 C2.07076832,6.17748673 1.40372436,5.47928962 0.566254346,5.45546662 C0.254722829,5.45546662 0,5.19707872 0,4.87821705 L0,1.65294958 C0,0.740345487 0.725685181,5.68434189e-14 1.61996389,5.68434189e-14 L14.2846363,5.68434189e-14 C15.1807476,5.68434189e-14 15.9046002,0.738512949 15.9046002,1.65294958 L15.9046002,4.88188212 C15.9046002,5.20074379 15.6517099,5.4591317 15.3383459,5.4591317 C14.4880481,5.45729916 13.7953486,6.16282642 13.7953486,7.03328213 Z M14.7757566,9.70145795 C13.5461234,9.42840973 12.6683375,8.3178915 12.6683375,7.03328213 C12.6683375,5.7505053 13.5442908,4.63998706 14.7757566,4.36510631 L14.7757566,1.65294958 C14.7757566,1.37806883 14.555852,1.15449915 14.2864689,1.15449915 L1.61996389,1.15449915 C1.35058075,1.15449915 1.13067615,1.37806883 1.13067615,1.65294958 L1.13067615,4.36693885 C2.36030938,4.63998706 3.23809524,5.7505053 3.23809524,7.03511467 C3.23809524,8.3178915 2.36214191,9.42840973 1.13067615,9.70329048 L1.13067615,12.4172798 C1.13067615,12.693993 1.35058075,12.9175627 1.61996389,12.9175627 L14.2846363,12.9175627 C14.555852,12.9175627 14.7739241,12.693993 14.7739241,12.4172798 L14.7757566,9.70145795 L14.7757566,9.70145795 Z" id="形状" fill-rule="nonzero"></path>
                </g>
            </g>
        </g>
    </g>
</svg>