<?xml version="1.0" encoding="UTF-8"?>
<svg width="15px" height="15px" viewBox="0 0 15 15" version="1.1" xmlns="http://www.w3.org/2000/svg" xmlns:xlink="http://www.w3.org/1999/xlink">
    <!-- Generator: Sketch 57.1 (83088) - https://sketch.com -->
    <title>guanbi</title>
    <desc>Created with Sketch.</desc>
    <g id="登录页" stroke="none" stroke-width="1" fill="none" fill-rule="evenodd">
        <g id="1-登录页账号" transform="translate(-329.000000, -44.000000)" fill="#999999">
            <g id="guanbi" transform="translate(329.000000, 44.000000)">
                <path d="M14.8092059,13.9263118 L8.38289912,7.5 L14.8095181,1.07338144 C14.9717781,0.916553328 15.0367926,0.684377296 14.9795732,0.466090019 C14.9223538,0.247802742 14.7518051,0.0773746359 14.5334775,0.020309607 C14.3151499,-0.0367554219 14.08302,0.0284232303 13.9263067,0.1907942 L7.5,6.61710328 L1.07369325,0.1907942 C0.916979986,0.0284232303 0.684850076,-0.0367554219 0.466522466,0.020309607 C0.248194857,0.0773746359 0.0776462406,0.247802742 0.0204268425,0.466090019 C-0.0367925556,0.684377296 0.0282218912,0.916553328 0.190481932,1.07338144 L6.61710088,7.5 L0.190794131,13.9263118 C0.02842322,14.0830251 -0.0367554085,14.3151551 0.0203095996,14.5334828 C0.0773746078,14.7518105 0.247802652,14.9223592 0.46608985,14.9795786 C0.684377048,15.036798 0.916552995,14.9717835 1.07338105,14.8095234 L7.5,8.38290216 L13.9266189,14.8095234 C14.083447,14.9717835 14.315623,15.036798 14.5339101,14.9795786 C14.7521973,14.9223592 14.9226254,14.7518105 14.9796904,14.5334828 C15.0367554,14.3151551 14.9715768,14.0830251 14.8092059,13.9263118 Z" id="路径"></path>
            </g>
        </g>
    </g>
</svg>