<?xml version="1.0" encoding="UTF-8"?>
<svg width="16px" height="8px" viewBox="0 0 16 8" version="1.1" xmlns="http://www.w3.org/2000/svg" xmlns:xlink="http://www.w3.org/1999/xlink">
    <!-- Generator: Sketch 57.1 (83088) - https://sketch.com -->
    <title>路径</title>
    <desc>Created with Sketch.</desc>
    <g id="账户总览" stroke="none" stroke-width="1" fill="none" fill-rule="evenodd" opacity="0.753745">
        <g id="1-账户总览" transform="translate(-146.000000, -101.000000)" fill="#9F9F9F" fill-rule="nonzero">
            <path d="M161.901468,101.987852 C162.070929,101.714652 162.014442,101.340266 161.788494,101.127776 C161.534303,100.915287 161.185967,100.975998 160.988263,101.249199 C160.96002,101.279555 157.78734,105.306733 154.002718,105.306733 C150.340484,105.306733 147.017172,101.249199 146.988929,101.218843 C146.791225,100.975998 146.414646,100.945643 146.188698,101.158132 C145.96275,101.370621 145.934507,101.775363 146.132211,102.018208 C146.188698,102.109275 146.875955,102.938995 147.968035,103.859782 L146.50879,105.488867 C146.282843,105.731712 146.311086,106.136453 146.537034,106.348943 C146.593521,106.470365 146.734738,106.531076 146.875955,106.531076 C147.017172,106.531076 147.15839,106.470365 147.280778,106.348943 L148.852996,104.598435 C149.59674,105.154955 150.481702,105.671001 151.460808,106.045387 L150.858281,108.230991 C150.773551,108.564903 150.943011,108.908933 151.263104,109 L151.432564,109 C151.686755,109 151.922117,108.817866 151.978604,108.534547 L152.581131,106.348943 C153.042441,106.44001 153.522579,106.500721 154.012132,106.500721 C154.501685,106.500721 154.981824,106.44001 155.443134,106.348943 L156.04566,108.504192 C156.102147,108.777392 156.356338,108.969644 156.5917,108.969644 C156.648187,108.969644 156.704674,108.969644 156.732918,108.939289 C157.043595,108.848222 157.222471,108.504192 157.13774,108.17028 L156.535213,106.015031 C157.504905,105.650764 158.399281,105.124599 159.143025,104.56808 L160.687,106.288231 C160.799974,106.409654 160.941191,106.470365 161.091823,106.470365 C161.242454,106.470365 161.374257,106.409654 161.496645,106.288231 C161.722593,106.045387 161.722593,105.671001 161.524889,105.428156 L160.065644,103.799071 C161.214211,102.878284 161.901468,101.987852 161.901468,101.987852 L161.901468,101.987852 Z" id="路径"></path>
        </g>
    </g>
</svg>