<?xml version="1.0" encoding="UTF-8"?>
<svg width="16px" height="10px" viewBox="0 0 16 10" version="1.1" xmlns="http://www.w3.org/2000/svg" xmlns:xlink="http://www.w3.org/1999/xlink">
    <!-- Generator: Sketch 57.1 (83088) - https://sketch.com -->
    <title>yanjing-2</title>
    <desc>Created with Sketch.</desc>
    <g id="账户总览" stroke="none" stroke-width="1" fill="none" fill-rule="evenodd" opacity="0.795007">
        <g id="1-账户总览" transform="translate(-123.000000, -97.000000)" fill="#9F9F9F" fill-rule="nonzero">
            <g id="分组" transform="translate(-17.000000, -75.000000)">
                <g id="分组-4" transform="translate(49.000000, 167.000000)">
                    <g id="yanjing-2" transform="translate(91.000000, 5.000000)">
                        <path d="M8.00324544,0 C3.01825558,0 0.00649087221,5.08884381 0.00649087221,5.08884381 C0.00649087221,5.08884381 3.48559838,10.0219067 8.00324544,10.0219067 C12.5208925,10.0219067 16,5.08884381 16,5.08884381 C16,5.08884381 12.9882353,0 8.00324544,0 Z M13.1440162,6.95821501 C11.4823529,8.36024341 9.7168357,9.24300203 7.95131846,9.24300203 C6.18580122,9.24300203 4.42028398,8.41217039 2.75862069,6.95821501 C2.18742394,6.43894523 1.61622718,5.91967546 1.14888438,5.3484787 C1.04503043,5.24462475 0.993103448,5.14077079 0.889249493,5.03691684 C0.941176471,4.93306288 1.04503043,4.82920892 1.0969574,4.72535497 C1.51237323,4.15415822 2.031643,3.58296146 2.60283976,3.06369168 C4.21257606,1.60973631 5.97809331,0.726977688 7.95131846,0.726977688 C9.92454361,0.726977688 11.6900609,1.60973631 13.2997972,3.06369168 C13.8709939,3.58296146 14.3383367,4.15415822 14.8056795,4.72535497 C14.8576065,4.82920892 14.9614604,4.93306288 15.0133874,5.03691684 C14.9614604,5.14077079 14.8576065,5.24462475 14.7537525,5.3484787 C14.2864097,5.86774848 13.76714,6.43894523 13.1440162,6.95821501 Z" id="形状"></path>
                        <path d="M7.95131846,1.97322515 C6.39350913,1.97322515 5.19918864,3.21947262 5.19918864,4.72535497 C5.19918864,6.2831643 6.44543611,7.47748479 7.95131846,7.47748479 C9.50912779,7.47748479 10.7034483,6.23123732 10.7034483,4.72535497 C10.7034483,3.21947262 9.45720081,1.97322515 7.95131846,1.97322515 Z M7.95131846,6.7505071 C6.86085193,6.7505071 5.97809331,5.86774848 5.97809331,4.77728195 C5.97809331,3.68681542 6.86085193,2.8040568 7.95131846,2.8040568 C9.04178499,2.8040568 9.92454361,3.68681542 9.92454361,4.77728195 C9.92454361,5.8158215 9.04178499,6.7505071 7.95131846,6.7505071 Z" id="形状"></path>
                    </g>
                </g>
            </g>
        </g>
    </g>
</svg>