<?xml version="1.0" encoding="UTF-8"?>
<svg width="14px" height="16px" viewBox="0 0 14 16" version="1.1" xmlns="http://www.w3.org/2000/svg" xmlns:xlink="http://www.w3.org/1999/xlink">
    <!-- Generator: Sketch 57.1 (83088) - https://sketch.com -->
    <title>shuangxiangzhuanzhen</title>
    <desc>Created with Sketch.</desc>
    <g id="收支明细" stroke="none" stroke-width="1" fill="none" fill-rule="evenodd">
        <g id="2.2-收支分析" transform="translate(-315.000000, -93.000000)" fill="#3A3A3A">
            <g id="shuangxiangzhuanzhen" transform="translate(321.500000, 101.000000) rotate(90.000000) translate(-321.500000, -101.000000) translate(314.000000, 94.000000)">
                <path d="M5.09668977,13.5280569 C4.63540935,13.5280569 4.25799814,13.1506456 4.25799814,12.6893652 L4.25799814,1.09445327 C4.25799814,0.633172852 4.63540939,0.255761638 5.09668977,0.255761638 C5.55797015,0.255761638 5.93538145,0.633172892 5.93538145,1.09445327 L5.93538145,12.6893652 C5.93538145,13.1506456 5.55797019,13.5280569 5.09668977,13.5280569 Z" id="路径"></path>
                <path d="M0.987100733,6.04273395 C0.777427815,6.04273395 0.567754896,5.95886478 0.400016602,5.79112648 C0.064539932,5.45564982 0.064539932,4.93146756 0.400016602,4.59599089 L4.48863835,0.507369141 C4.82411502,0.171892471 5.34829728,0.171892471 5.68377395,0.507369141 C6.01925062,0.84284581 6.01925062,1.36702807 5.68377395,1.70250474 L1.5951522,5.79112648 C1.42741386,5.95886482 1.21774094,6.04273395 0.987100733,6.04273395 L0.987100733,6.04273395 Z" id="路径"></path>
                <path d="M9.96110132,13.4458651 C9.4998209,13.4458651 9.12240965,13.0684538 9.12240965,12.6071734 L9.12240965,1.01226149 C9.12240965,0.550981071 9.4998209,0.173569858 9.96110132,0.173569858 C10.4223817,0.173569858 10.799793,0.550981111 10.799793,1.01226149 L10.799793,12.6071734 C10.799793,13.0684539 10.4223817,13.4458651 9.96110132,13.4458651 Z" id="路径"></path>
                <path d="M9.96110132,13.4458651 C9.7514284,13.4458651 9.54175548,13.3619959 9.37401715,13.1942576 C9.03854048,12.8587809 9.03854048,12.3345986 9.37401715,11.999122 L13.4626389,7.91050023 C13.7981156,7.57502356 14.3222978,7.57502356 14.6577745,7.91050023 C14.9932512,8.2459769 14.9932512,8.77015915 14.6577745,9.10563582 L10.5691527,13.1942576 C10.4014144,13.3619959 10.1707742,13.4458651 9.96110132,13.4458651 L9.96110132,13.4458651 Z" id="路径"></path>
            </g>
        </g>
    </g>
</svg>