<?xml version="1.0" encoding="UTF-8"?>
<svg width="30px" height="30px" viewBox="0 0 30 30" version="1.1" xmlns="http://www.w3.org/2000/svg" xmlns:xlink="http://www.w3.org/1999/xlink">
    <!-- Generator: Sketch 57.1 (83088) - https://sketch.com -->
    <title>分组 5 copy 3</title>
    <desc>Created with Sketch.</desc>
    <g id="收支明细" stroke="none" stroke-width="1" fill="none" fill-rule="evenodd">
        <g id="2-收支明细" transform="translate(-20.000000, -531.000000)">
            <g id="分组-5-copy-3" transform="translate(20.000000, 531.000000)">
                <circle id="椭圆形" fill="#F2F2F5" fill-rule="nonzero" cx="15" cy="15" r="15"></circle>
                <g id="gouwu" transform="translate(7.500000, 5.250000)">
                    <path d="M14.9851343,14.8047761 L14.045194,5.62316418 C13.9534925,4.66029851 13.1396418,3.90376119 12.2111642,3.90376119 L2.78883582,3.90376119 C1.86035821,3.90376119 1.04650746,4.66029851 0.95480597,5.62316418 L0.0148656716,14.8047761 C-0.0309850746,15.2976716 0.106567164,15.7561791 0.416059701,16.1115224 C0.714089552,16.455403 1.14967164,16.6502687 1.61964179,16.6502687 L13.3918209,16.6502687 C13.861791,16.6502687 14.2859104,16.455403 14.5839403,16.1115224 C14.8934328,15.7561791 15.0309851,15.2976716 14.9851343,14.8047761 Z M13.7471642,15.320597 C13.6554627,15.4237612 13.5293731,15.4810746 13.3918209,15.4810746 L1.6081791,15.4810746 C1.45916418,15.4810746 1.33307463,15.4237612 1.24137313,15.320597 C1.14967164,15.2174328 1.11528358,15.0798806 1.12674627,14.9308657 L2.06668657,5.74925373 C2.10107463,5.38244776 2.43349254,5.08441791 2.77737313,5.08441791 L12.2111642,5.08441791 C12.5665075,5.08441791 12.8874627,5.39391045 12.9218507,5.74925373 L13.861791,14.9308657 C13.8732537,15.0798806 13.8388657,15.2174328 13.7471642,15.320597 Z" id="形状" fill="#293478" fill-rule="nonzero"></path>
                    <path d="M7.5,0.00644776119 C5.63158209,0.00644776119 4.10704478,1.53098507 4.10704478,3.39940299 L4.10704478,6.47140299 C4.10704478,6.67773134 4.22167164,6.87259701 4.40507463,6.97576119 C4.58847761,7.07892537 4.80626866,7.07892537 4.98967164,6.97576119 C5.17307463,6.87259701 5.28770149,6.67773134 5.28770149,6.47140299 L5.28770149,3.05552239 C5.28770149,2.0238806 6.28495522,1.17564179 7.51146269,1.17564179 C8.73797015,1.17564179 9.72376119,2.0238806 9.72376119,3.05552239 L9.72376119,6.48286567 C9.72376119,6.68919403 9.83838806,6.8840597 10.021791,6.98722388 C10.205194,7.09038806 10.4229851,7.09038806 10.6063881,6.98722388 C10.789791,6.8840597 10.9044179,6.68919403 10.9044179,6.48286567 L10.9044179,3.39940299 C10.8929552,1.53098507 9.36841791,0.00644776119 7.5,0.00644776119 Z" id="路径" fill="#FFB150"></path>
                </g>
            </g>
        </g>
    </g>
</svg>