<?xml version="1.0" encoding="UTF-8"?>
<svg width="30px" height="30px" viewBox="0 0 30 30" version="1.1" xmlns="http://www.w3.org/2000/svg" xmlns:xlink="http://www.w3.org/1999/xlink">
    <!-- Generator: Sketch 57.1 (83088) - https://sketch.com -->
    <title>分组 3</title>
    <desc>Created with Sketch.</desc>
    <defs>
        <circle id="path-1" cx="13" cy="13" r="13"></circle>
        <filter x="-9.6%" y="-5.8%" width="119.2%" height="119.2%" filterUnits="objectBoundingBox" id="filter-2">
            <feMorphology radius="0.5" operator="dilate" in="SourceAlpha" result="shadowSpreadOuter1"></feMorphology>
            <feOffset dx="0" dy="1" in="shadowSpreadOuter1" result="shadowOffsetOuter1"></feOffset>
            <feMorphology radius="1" operator="erode" in="SourceAlpha" result="shadowInner"></feMorphology>
            <feOffset dx="0" dy="1" in="shadowInner" result="shadowInner"></feOffset>
            <feComposite in="shadowOffsetOuter1" in2="shadowInner" operator="out" result="shadowOffsetOuter1"></feComposite>
            <feGaussianBlur stdDeviation="0.5" in="shadowOffsetOuter1" result="shadowBlurOuter1"></feGaussianBlur>
            <feColorMatrix values="0 0 0 0 0.908338306   0 0 0 0 0.926499688   0 0 0 0 0.955383716  0 0 0 1 0" type="matrix" in="shadowBlurOuter1"></feColorMatrix>
        </filter>
    </defs>
    <g id="收支明细" stroke="none" stroke-width="1" fill="none" fill-rule="evenodd">
        <g id="2-收支明细" transform="translate(-43.000000, -255.000000)" fill-rule="nonzero">
            <g id="分组-2" transform="translate(45.000000, 256.000000)">
                <g id="分组-3">
                    <g id="椭圆形-copy-6">
                        <use fill="white" fill-opacity="1" filter="url(#filter-2)" xlink:href="#path-1"></use>
                        <use stroke="#E4E6F3" stroke-width="1" xlink:href="#path-1"></use>
                    </g>
                    <g id="fenxi-2" transform="translate(7.090909, 6.590909)" fill="#666666">
                        <path d="M6.23218263,0.859073902 L5.3628277,0.88118364 C2.37624418,1.10007005 0.012270905,3.58741567 0.012270905,6.63015793 C0.012270905,9.81705568 2.59159304,12.4003576 5.77893298,12.4003576 C8.82211743,12.4003576 11.3063677,10.031078 11.5265807,7.04449443 L11.5455951,6.17690828 L6.23218263,6.17690828 L6.23218263,0.859073902 Z M10.6682806,7.06129783 C10.4520474,9.71446649 8.34543146,11.547806 5.77495323,11.547806 C3.0603195,11.547806 0.859073902,9.34567605 0.859073902,6.63104232 C0.859073902,4.06056408 2.69462442,1.95262158 5.34779308,1.73594614 L5.34779308,7.06129783 L10.6682806,7.06129783 Z M6.6743774,0.00475359384 L6.6743774,5.7347135 L12.4003576,5.7347135 C12.4003576,2.63935007 9.76974084,0.00475359384 6.6743774,0.00475359384 Z M7.55876696,0.924076534 C8.00096173,0.987310387 8.24195789,1.09255274 8.58686981,1.23847702 C9.17322009,1.48610609 9.67909091,1.8411885 10.1314562,2.29355376 C10.5838214,2.74591901 10.9287333,3.23365985 11.1768046,3.82001012 C11.3227289,4.16492205 11.4173586,4.40812918 11.4810346,4.85032395 L7.55876696,4.85032395 L7.55876696,0.924076534 Z" id="形状"></path>
                        <path d="M6.23218263,0.859073902 L5.3628277,0.88118364 C2.37624418,1.10007005 0.012270905,3.58741567 0.012270905,6.63015793 C0.012270905,9.81705568 2.59159304,12.4003576 5.77893298,12.4003576 C8.82211743,12.4003576 11.3063677,10.031078 11.5265807,7.04449443 L11.5455951,6.17690828 L6.23218263,6.17690828 L6.23218263,0.859073902 Z M10.6682806,7.06129783 C10.4520474,9.71446649 8.34543146,11.547806 5.77495323,11.547806 C3.0603195,11.547806 0.859073902,9.34567605 0.859073902,6.63104232 C0.859073902,4.06056408 2.69462442,1.95262158 5.34779308,1.73594614 L5.34779308,7.06129783 L10.6682806,7.06129783 Z M6.6743774,0.00475359384 L6.6743774,5.7347135 L12.4003576,5.7347135 C12.4003576,2.63935007 9.76974084,0.00475359384 6.6743774,0.00475359384 Z M7.55876696,0.924076534 C8.00096173,0.987310387 8.24195789,1.09255274 8.58686981,1.23847702 C9.17322009,1.48610609 9.67909091,1.8411885 10.1314562,2.29355376 C10.5838214,2.74591901 10.9287333,3.23365985 11.1768046,3.82001012 C11.3227289,4.16492205 11.4173586,4.40812918 11.4810346,4.85032395 L7.55876696,4.85032395 L7.55876696,0.924076534 Z" id="形状"></path>
                    </g>
                </g>
            </g>
        </g>
    </g>
</svg>